<svg width="738" height="733" viewBox="0 0 738 733" fill="none" xmlns="http://www.w3.org/2000/svg">
<g clip-path="url(#clip0_34_48)">
<path id="DAN" fill-rule="evenodd" clip-rule="evenodd" d="M285.85 392.51L286.65 393.41L289.45 394.31L291.25 391.81L292.95 392.31L293.15 391.11L291.95 389.01L292.55 386.81L290.55 386.41L289.65 386.91L288.75 386.31L286.65 386.91L286.75 388.61L288.85 388.81L288.25 389.51L286.55 390.41L285.85 392.51ZM305.65 373.41L304.95 377.11L305.65 379.61L310.05 381.11L310.55 378.71L308.15 374.91L305.65 373.41ZM278.75 367.21L277.85 370.01L279.75 370.61L278.75 367.21ZM271.95 380.81L269.85 380.91L268.75 379.51L269.95 378.11L269.45 376.81L266.25 376.01H264.45L262.75 374.11L262.85 371.31L261.75 369.61L261.35 367.61L263.05 367.11L264.15 365.01L265.45 364.11L266.75 365.81L266.85 367.11L269.35 368.81L269.95 368.11L271.35 368.51L271.55 367.11L269.45 365.71L268.55 364.51L269.85 362.01L273.55 361.11L276.75 361.01L277.55 363.21L277.75 366.11L276.85 369.41L274.05 370.81V371.71L276.55 373.41L277.05 375.11L275.65 376.41L272.85 377.61L272.95 379.51L271.95 380.81ZM273.55 381.61L274.05 382.71L275.35 380.91L277.25 380.51L276.85 379.01L274.85 379.81L273.55 381.61ZM263.25 381.21L265.75 384.71L267.55 384.11H268.95L269.85 382.01L272.05 382.11L272.55 381.71L273.05 383.61L271.75 386.01V388.21L271.15 387.81L270.45 385.71L269.15 387.41L265.25 387.81L261.35 386.51L260.25 385.01L261.75 384.41L260.85 383.21L261.95 381.41L263.25 381.21ZM253.45 367.41L254.75 365.31V361.51L255.65 365.01L255.45 366.91L253.45 367.41ZM252.15 382.21L254.15 384.21L255.05 383.31L252.15 382.21ZM258.35 377.71L257.65 381.61L256.55 383.81L257.05 385.11L258.55 383.01L260.25 379.81C260.15 379.71 258.05 377.71 258.35 377.71ZM245.75 370.71L249.85 369.91L252.75 371.61L254.65 371.21L256.45 375.11L257.15 377.31L255.45 380.61L252.75 381.11L251.25 380.21L249.05 379.81L246.45 377.21L245.05 374.31L245.75 370.71ZM256.75 336.21L258.05 334.51H260.95L258.75 336.21H256.75ZM232.15 349.11L231.95 346.31L233.95 344.41L236.15 344.31L235.75 346.11L233.55 348.61L232.15 349.11ZM231.35 350.61L230.75 347.11L231.35 345.21L235.95 342.41L236.55 342.91L238.75 342.51L241.65 343.11L243.65 342.41H246.35L248.55 343.31L250.05 342.61L252.75 337.91L252.15 335.01L252.65 333.81L252.05 331.01L254.05 327.51L253.65 326.61L249.95 330.31L246.45 332.01L243.95 332.21L242.25 334.81L240.85 338.01L238.15 339.91H235.05L231.55 342.71L230.65 342.01L228.65 342.11L227.75 345.01L225.65 347.01L226.95 348.11L228.15 347.41L231.35 350.61ZM243.15 383.11L243.05 383.01L243.75 381.31L241.85 379.41H240.75L240.85 377.51L242.35 376.21L242.55 374.11L241.25 373.51L241.35 371.61L246.65 368.91L245.45 368.01L247.45 365.81L248.65 366.51L251.45 365.41L251.35 361.61L250.05 359.11L251.75 357.41L254.15 357.01L255.85 358.91L256.75 358.21L257.85 358.71L258.75 357.41L259.55 355.21L257.15 352.61L255.85 353.71L252.65 353.61L251.15 351.91L249.75 349.71L248.45 349.31L249.65 347.91V345.11L247.05 343.31L242.95 343.71L240.95 344.61L238.75 344.21L237.65 345.11L239.85 348.21L239.25 349.31L241.45 352.01L241.25 352.81L239.15 352.01L236.95 352.51L236.45 351.21L237.85 349.71L236.45 347.11H235.75L233.55 350.21L234.85 352.01L232.25 353.91L230.75 352.11H228.55L227.05 351.31L225.15 353.31L228.05 355.51V358.11L226.25 356.81L225.05 357.21L225.55 360.61L227.45 361.71V364.81L228.95 366.31L225.15 368.11L223.65 372.01L225.15 373.21L227.35 372.01L230.45 374.81L231.05 378.91L229.85 379.61L230.45 381.71L234.15 381.61L239.25 383.01L240.75 383.71L243.15 383.11Z" fill="#D3E8EF" stroke="#74A2C1"/>
<path id="ESTONIA" fill-rule="evenodd" clip-rule="evenodd" d="M456.85 329.71L458.85 326.61L458.45 324.01L460.55 322.11V319.31L454.15 307.71L455.05 297.31L456.75 296.21L457.65 292.31L459.75 289.61L460.15 288.81L460.05 288.31L458.75 286.11L458.35 287.41L447.25 287.01L442.25 283.91L437.15 284.01L434.45 282.61L432.05 283.21L429.25 280.71L429.05 282.61L427.25 282.21V283.41L428.75 284.71L426.25 286.41L424.95 285.61L419.95 285.41L419.05 284.11L418.35 286.81L415.85 286.41L413.15 287.21L412.75 289.41L410.95 288.91L406.55 290.81L405.05 293.41L405.15 302.11L406.95 302.51L407.85 301.81L410.35 302.01L409.05 304.01L407.05 304.21L407.25 307.71L409.45 311.21L413.35 314.71L414.75 314.31L414.95 312.11L417.65 309.91L418.75 311.91L417.35 319.11V320.61L418.75 320.01L422.95 317.51L426.25 316.71L429.65 319.31L431.45 319.11L432.05 316.71L434.05 318.21L434.95 320.21L436.75 320.31L440.95 323.01L442.35 326.21L444.95 327.51L447.05 330.41L451.85 328.41L456.85 329.71ZM401.25 297.51L403.65 297.31L404.25 298.71L401.65 299.11L401.25 297.51ZM396.25 304.01L394.55 301.31L392.15 301.51L389.75 302.61L388.65 301.91L393.05 299.91L394.35 298.21L394.55 297.31L396.05 297.51L397.45 298.81L399.95 298.91L401.05 301.61L399.35 301.01L396.95 302.51L396.25 304.01ZM401.35 306.11L401.25 304.41L404.75 304.51L405.95 307.61L404.55 308.51L401.35 306.11ZM389.05 321.81L390.25 322.01L392.35 320.21V318.81L394.25 315.01L398.05 314.31L399.75 312.31L401.25 309.91L403.15 310.31L403.75 309.91L403.15 309.11L401.85 308.31L399.75 306.61L395.55 306.21L394.35 305.61L393.05 307.31L392.25 307.51L390.95 309.21L390.25 307.91L388.85 307.41V308.51L387.55 309.11L389.45 309.71V311.01L388.05 311.91V313.61L390.15 314.21L392.25 316.21L391.55 318.31L390.35 318.21L389.05 321.81Z" fill="#D3E8EF" stroke="#74A2C1"/>
<path id="FINLAND" fill-rule="evenodd" clip-rule="evenodd" d="M458.85 261.01L458.35 257.01L464.75 251.01L468.05 249.51L471.75 242.91L475.65 237.11L478.45 230.31L483.95 220.91L487.95 211.11L487.05 207.01L481.15 200.21L477.65 199.01L471.25 190.01L472.35 186.01L474.95 182.51L474.75 178.51L470.65 175.71L469.15 172.51L468.95 167.41L470.05 166.11L468.85 163.51L465.45 162.91L463.65 160.71V156.11L465.55 153.61L462.85 152.91L462.75 150.51L463.35 141.51L465.85 140.91L459.75 126.51L454.05 116.11L452.85 112.21L449.55 108.71L451.75 102.11L454.45 97.61L455.75 93.61L454.05 92.11L447.65 88.11L446.55 85.51L444.45 82.31L440.65 80.21L438.75 80.01L436.35 73.71L434.45 71.51L435.35 66.81L435.95 63.11L433.75 62.41L435.95 60.91L439.65 59.51L439.15 53.71L441.55 49.91L442.05 47.11L439.35 44.11L438.55 41.91L433.95 41.41L431.05 40.21L429.15 38.21L425.85 34.01L423.25 32.21L417.35 32.31L415.15 34.81L415.35 36.01L413.25 36.51L409.75 35.81L406.95 37.11L407.15 38.61L405.05 41.51L403.55 42.41L404.85 44.51L403.95 46.61L403.25 53.71L404.55 57.81L405.45 60.21L404.55 62.11L402.15 63.61L399.75 63.41L397.65 65.51L395.85 66.41L394.15 69.51L391.05 69.01L386.45 65.81L383.65 65.71L381.75 67.71L378.35 71.01L371.85 70.81L367.95 69.11L365.75 66.21L364.65 63.31L358.75 58.61L356.65 55.51L354.05 55.11L352.15 56.61L351.65 59.01L352.45 61.11L351.55 61.71L350.35 61.11L349.75 61.91L351.95 64.61L355.45 66.41L360.25 72.11L363.75 74.81L369.05 75.21L371.15 76.51L373.05 77.01L375.75 80.11L376.65 82.71L377.85 82.91L378.75 82.71L381.15 86.01L383.25 86.11L384.65 88.11L383.55 90.61L384.25 94.61L383.05 97.81L383.25 100.51L386.95 100.71L387.75 103.91L386.45 105.91L386.95 109.71L388.45 111.91L389.35 116.91L388.65 119.11L389.25 121.21V126.51L388.45 128.51L389.85 132.51L392.45 133.41L394.85 138.51L396.35 140.21L396.25 143.11L397.15 144.21L399.75 144.31L402.25 146.91H407.45L410.95 150.31L408.95 151.21L410.25 153.11L410.45 157.21L409.55 158.01L413.65 161.91L410.55 161.31L409.35 161.81L412.85 164.71L412.95 166.41L408.85 164.21L405.45 164.31L401.75 166.71L401.85 168.91L399.35 171.51V173.41L398.15 174.21L393.95 178.71L393.35 183.21L392.25 183.61L391.55 182.31L390.25 182.51L391.15 185.21L390.55 187.41L387.75 187.81L386.05 190.01L386.75 193.41L388.65 194.71L385.35 193.61L384.45 192.31L382.55 193.01L381.45 195.91L381.95 197.21L380.05 196.41L379.35 197.51L381.25 199.41V200.71L379.55 202.51L378.75 204.01L376.35 205.71L375.05 204.81L374.65 203.91L372.85 203.31L370.95 204.01L371.65 206.51L370.15 207.81L371.25 210.41L370.15 212.91L368.85 213.31L367.55 215.51L368.65 218.21L369.35 218.81L368.55 221.51L369.05 223.31L370.85 222.51L372.25 224.01L371.75 226.91L371.05 228.31L371.95 230.91L371.35 232.11L374.05 236.61L375.35 237.81L374.45 239.51L376.55 242.71L374.55 243.51L375.05 247.71L374.15 249.41L374.05 255.11L375.55 257.11L374.15 260.21V262.31L375.25 263.71L378.95 262.01L380.25 263.11L380.85 261.41L383.95 264.71L385.85 264.31L387.75 266.01L391.75 265.51L392.95 266.01L391.85 268.01H393.25L396.55 265.61V267.51L394.85 269.91L398.25 274.71L398.95 276.41L398.05 279.21L398.95 279.71L400.35 275.71L402.05 274.91L402.45 276.71L404.85 275.61L406.85 275.51L411.35 272.31H413.85L419.25 268.81L419.65 267.41L423.15 268.51L425.55 268.01L427.65 264.71L428.25 265.91L427.05 268.31L428.45 268.91L429.85 265.61L431.15 266.01L429.95 263.21L431.15 262.01L432.45 264.71L433.95 265.11L434.55 263.11L435.85 266.21L437.65 265.61L437.85 263.71L439.35 264.21L439.95 265.61L441.75 263.91L445.25 263.21L447.25 265.01L451.45 264.41L451.85 263.01L450.65 261.81L451.95 261.11L453.85 261.71L454.35 263.41L457.05 264.11C458.05 262.61 458.45 261.71 458.85 261.01ZM407.45 160.81L406.35 162.11L403.95 161.91L402.05 159.21L404.65 157.31L408.75 158.01L408.55 159.21L406.05 159.31L407.45 160.81ZM368.65 199.91L369.05 198.11L370.75 199.51L369.65 200.71L368.65 199.91ZM367.45 201.61L369.15 202.91L370.95 202.11L370.75 204.31L368.25 205.71L366.75 203.81L367.45 201.61ZM396.05 274.01L396.65 276.11L394.85 277.31L393.95 276.11L395.25 275.41L396.05 274.01ZM392.35 270.91L393.15 272.81L392.05 273.01L392.35 270.91ZM386.85 268.21L391.05 267.41L390.65 269.11L388.15 271.11L386.25 270.01L386.85 268.21ZM381.05 263.61L383.85 266.11L382.15 267.21L380.95 265.91V263.61H381.05ZM374.95 264.81L377.55 265.21L376.05 265.81L374.95 264.81ZM356.65 268.81L359.85 269.91L360.65 268.61L358.55 267.31V265.21L359.95 265.11L364.05 267.91L364.45 270.01L362.55 269.81L361.65 270.91L363.05 273.31L365.05 273.11L365.65 275.51L363.75 276.61L361.55 274.51L358.85 273.61L357.35 271.71L355.65 270.51L356.65 268.81Z" fill="#D3E8EF" stroke="#74A2C1"/>
<path id="GREECE" fill-rule="evenodd" clip-rule="evenodd" d="M473.75 612.01H472.05L468.75 614.51L468.55 617.71L469.65 620.11L467.85 621.61L461.95 621.21L459.35 622.51L456.95 621.11H454.25L452.35 622.61L449.75 622.41L449.35 620.21L445.85 620.31L442.45 619.71L440.05 621.91L436.55 622.81L431.95 622.71L430.55 622.01L428.75 623.51L426.15 623.61L422.95 625.61L416.15 625.41L413.25 626.91L413.05 628.11L409.25 629.51L403.85 632.81L403.25 636.71L401.15 640.71L395.75 642.51L395.55 645.71L393.65 649.71L391.85 650.61L392.05 650.81L392.25 654.81L397.25 658.61L400.05 662.71L401.35 663.11L400.95 664.41L404.85 669.81L405.75 673.61L407.55 674.31L409.75 671.51L411.85 674.11L415.05 674.51L416.45 672.41L418.85 672.61L422.55 674.81L424.65 673.71L425.05 675.61L426.85 675.51L428.25 676.71L431.15 677.21L429.05 678.51L427.15 680.41L425.25 678.91L422.75 678.31L417.35 674.81L414.95 675.61L412.55 677.01L410.15 675.81L408.15 678.31L406.75 678.71L405.85 681.11L408.75 684.41L411.85 685.81L414.75 688.51L415.15 690.51L413.95 691.91L414.15 694.51L416.65 697.71L418.35 699.61L419.05 697.81L418.45 696.51L419.55 694.11L420.45 697.21L424.15 698.71L424.95 700.71L424.45 703.11L425.95 705.01V701.11L427.25 697.91H429.65L430.75 700.41L434.75 703.11L433.05 700.31L433.45 698.41L431.95 695.61L430.05 691.11L428.35 688.51L428.45 687.41L430.15 687.21L433.25 688.71L432.35 689.91L433.25 691.01L434.75 689.31L437.95 690.41L438.05 689.31L436.75 688.41L436.55 687.21L435.45 686.81L433.25 685.41L433.45 684.11L430.75 682.01L433.35 680.81L435.75 680.91L437.15 679.61L440.95 682.21L441.45 683.41L444.05 683.81L444.75 682.31L442.55 679.01L443.15 675.81L442.25 674.01L435.85 670.11L433.85 669.61L432.95 668.11L431.15 668.21L429.95 666.81L427.25 666.41L424.55 664.01L427.45 663.51L429.15 661.51L429.05 660.11L426.35 659.41L427.75 657.51L427.65 656.01L429.75 656.81L431.55 658.21L430.85 659.71L431.05 661.11L432.55 660.71L433.45 657.51L431.65 655.41L427.55 650.21L425.75 648.81L425.35 646.91L422.15 644.21L423.35 642.81L422.75 637.41L424.55 634.61L427.85 633.91L428.25 636.61H426.75L427.15 638.01L431.35 640.01L431.85 643.31L434.55 645.41L437.65 645.31L435.55 643.81L434.35 641.71L434.75 639.81L437.55 640.71L439.65 643.81L441.55 644.51L442.65 642.71L440.55 641.21L438.65 640.51L438.75 639.01L443.85 639.21L445.75 641.11L446.55 640.21L443.65 637.51L440.55 637.01L438.05 634.11L439.45 632.41L442.15 633.21L444.35 632.01L445.45 628.31L447.45 627.61L450.55 629.81L452.75 630.01L455.25 627.41L455.35 626.01H456.55L458.45 628.11H464.15L468.35 629.21L471.25 628.51L472.75 625.31L472.15 622.41L475.65 620.31L475.85 616.91L473.05 615.71L473.75 612.01ZM443.05 718.81L442.15 717.11L442.05 719.11L441.25 720.91L441.45 723.01L443.45 723.91L448.05 723.31L449.95 723.81L451.85 723.21L454.55 724.01L457.45 725.81L457.85 727.61L461.25 727.51L464.05 725.71L467.25 725.91L472.35 725.81L475.85 725.91L477.85 724.61L478.65 722.71L478.15 720.81V719.61L477.45 720.71L477.35 722.11L475.65 723.51L474.45 722.41L473.05 723.01L471.65 722.81L472.05 721.51L471.35 719.71H470.05L466.25 719.21L463.35 717.91L459.45 718.01L456.15 720.01L453.65 720.61L451.55 719.51L450.65 718.41L448.95 718.61L450.15 717.51L449.25 715.81L447.15 715.91L447.55 717.01L448.25 717.21L447.45 717.91L445.45 718.01L444.95 716.01L444.35 715.81L444.15 717.01L444.55 718.41H443.05V718.81ZM387.95 649.31L387.85 652.01L389.35 653.81L391.15 654.41L391.35 655.31L390.75 655.81L388.55 654.71L386.05 652.11L385.85 651.31L384.45 650.71L384.25 649.31L386.65 648.41L387.95 649.31ZM398.65 668.91L398.55 668.01L399.75 665.81L400.65 665.61L401.05 668.01L400.25 669.11L399.45 669.31L398.65 668.91ZM398.75 673.41V670.11L400.25 671.41L401.05 673.31L400.65 674.51L401.85 675.81L402.25 677.11L402.85 677.81L402.15 679.11L400.45 678.21L398.55 678.01V676.51L397.95 675.81V677.21L397.25 677.91L395.95 676.61V673.71L397.65 673.21L398.75 673.41ZM403.85 683.21L404.95 684.41L403.25 684.21L402.85 685.11L401.35 684.71L399.45 682.81L399.85 681.31L400.95 680.71L402.65 681.51L403.85 683.21ZM489.45 713.41L489.05 712.81L489.75 711.61V712.91L489.45 713.41ZM488.85 720.41L488.35 717.61L487.55 715.91L489.05 714.01L489.45 715.71L490.75 717.41L489.85 720.01L488.85 720.41ZM496.05 712.21L495.25 711.31L495.95 709.81L495.45 709.21L495.65 707.81L498.55 705.31L501.75 704.01L503.55 703.31L503.45 704.71L502.55 705.41L502.05 706.91L501.35 708.11V709.01H500.05L498.55 710.41L497.35 711.91L496.05 712.21ZM477.55 703.11L476.35 702.21L476.95 701.31L479.05 700.51L480.15 701.01L479.25 702.41C478.65 702.61 478.15 702.91 477.55 703.11ZM477.25 683.61L479.45 681.71L480.95 681.81L482.65 683.11L483.15 682.51L483.85 682.61L484.05 683.71L482.55 684.41L481.95 685.21H480.65L479.45 683.91L477.95 684.01L476.55 684.41L477.25 683.61ZM472.65 669.01L473.25 672.41L472.75 674.61L470.85 675.51L469.35 674.31V673.21L470.55 672.71V670.71L468.75 669.41V668.51L470.25 667.71L471.95 668.41L472.65 669.01ZM468.95 661.11L466.95 659.41L468.25 657.31L471.35 656.21L472.85 655.31L475.65 654.81L476.15 655.51L475.55 657.01L476.15 657.11L476.65 659.11V662.01L473.95 662.21L472.05 661.31L472.75 660.21L473.95 659.31L474.15 657.61H472.15L471.55 659.11L471.35 660.81L470.05 661.21L468.95 661.11ZM462.05 636.01L462.55 635.11L464.45 634.91L466.15 635.41V636.71L464.65 637.31L462.05 636.01ZM456.05 643.11H458.25L459.15 643.91L460.55 642.61L461.95 643.31L460.25 645.21L459.85 647.81L458.35 647.11L457.25 647.31L456.05 646.21L455.45 644.11L456.05 643.11ZM449.45 631.31L450.55 630.91L452.45 631.81L452.65 633.31L450.85 634.11L450.15 633.61H448.65L449.45 631.31ZM437.05 659.01L437.85 658.81L439.25 659.31L439.75 661.11L439.25 662.01L437.05 659.01ZM434.55 659.01L435.65 658.31L436.25 658.91L435.55 660.21L434.55 659.01ZM450.15 662.21L451.05 661.81L452.25 663.01L453.65 663.51L453.85 665.91L452.95 666.31L452.25 664.81L451.55 664.61L450.15 662.21ZM472.55 688.41L471.65 687.21L472.05 685.71L474.85 685.11L474.35 686.51L472.55 688.41ZM449.95 702.21L451.25 700.31H453.05L452.65 701.71L451.15 702.31L449.95 702.21ZM450.95 693.71L452.25 692.81V694.61L450.95 693.71ZM450.55 691.21V688.81L451.85 689.21V690.41C451.45 690.71 450.95 690.91 450.55 691.21ZM449.25 688.01L448.75 687.11L449.55 686.01L450.45 687.31L449.25 688.01ZM461.55 696.11L460.35 695.01L460.95 692.81H462.25L462.85 694.21L461.55 696.11ZM465.05 695.51L464.15 694.01L466.15 692.31L467.35 692.51L467.55 693.91L466.35 695.41H465.05V695.51ZM464.15 689.51V688.41L465.35 688.81L464.15 689.51ZM460.15 686.11L461.45 685.61L462.65 686.81L462.85 688.11L461.35 687.41L460.15 686.11ZM454.05 680.71L455.25 680.61L456.35 682.31L458.75 684.41V685.91H457.55L454.65 683.11L453.45 682.01L454.05 680.71ZM428.45 663.91L430.35 662.21L433.85 661.61L435.95 663.81L438.35 664.71L440.75 666.01L440.95 666.61L442.75 666.71L442.95 666.21L446.25 669.51L447.45 671.61V672.81L447.85 674.21L447.65 676.21L449.55 678.01L450.35 677.41L452.85 677.61L451.95 680.31L450.65 679.61L449.45 680.21L447.45 678.91L446.75 677.51L446.95 676.01L445.85 674.91L444.05 672.31L443.35 671.11L441.55 671.21L439.05 669.91L437.95 668.21L436.25 667.81L435.15 666.31L433.95 665.71L433.35 664.81L432.05 663.71L429.65 663.81L428.45 663.61V663.91ZM432.35 704.71L432.85 704.11L433.35 705.91L434.75 707.81L433.85 709.81L432.55 709.11L432.65 707.71L431.85 706.41L432.35 704.71ZM432.25 702.21L432.95 703.41H432.05L432.25 702.21Z" fill="#D3E8EF" stroke="#74A2C1"/>
<path id="HUNGARY" fill-rule="evenodd" clip-rule="evenodd" d="M387.65 542.51L390.35 539.71L392.85 539.11L394.05 536.61L397.75 537.01L400.35 534.61L400.25 531.91L405.05 524.71L407.85 516.21L410.75 510.91L414.05 510.31L415.35 507.21L414.05 503.81L410.65 501.61L407.35 498.41L404.25 500.41L400.05 499.51L394.55 499.91L391.35 499.11L386.75 499.51L384.35 503.21L381.85 505.21L381.45 507.81L377.65 503.71L373.15 507.51L369.25 508.81L368.85 511.41L361.45 512.11L356.85 513.81L352.05 512.91L342.85 507.61L343.05 509.51L343.45 512.21L342.95 515.01L337.05 514.91L336.35 516.11L338.95 518.91L337.75 522.11L337.35 524.71L338.85 527.31L336.65 530.01L336.05 530.11L339.55 534.11L340.05 538.71L342.55 539.21L348.25 544.51L351.05 545.71L353.25 547.41L360.35 548.61L365.45 550.41L367.65 547.71L369.05 548.41L370.95 546.41L374.15 544.71L376.55 545.11L377.35 543.81L380.65 541.01L382.65 541.71L385.55 542.41L387.65 542.51Z" fill="#D3E8EF" stroke="#74A2C1"/>
<path id="IRELAND" fill-rule="evenodd" clip-rule="evenodd" d="M14.85 445.61L19.45 445.11L23.95 443.81L27.35 441.41L26.15 438.71L28.75 438.91L28.05 440.61L30.75 440.51L33.25 437.91L35.15 438.01L35.75 435.41L43.55 434.61L44.15 432.81L45.35 434.81L47.05 433.31L48.75 433.91H52.65L49.95 430.41L51.95 429.61L54.05 427.01L53.55 424.91L55.75 422.41L56.45 419.61L55.35 413.51L53.65 412.41L55.65 411.11V408.41L53.85 405.71L54.35 402.91L52.25 401.51L53.35 399.81L55.05 400.01L52.15 398.11L50.15 397.61L47.55 392.41L43.65 390.51L41.95 391.71L41.25 395.51L39.25 395.91L33.45 390.61L36.35 384.31L39.15 383.91L39.85 381.51L41.75 380.41L43.05 379.01L41.75 379.41L44.55 377.21L47.05 375.81L44.15 374.31L42.15 372.51L43.05 374.41H40.25L40.75 377.51L38.75 380.41L38.95 378.51L40.05 377.11L38.75 374.71L36.85 375.11L38.05 376.61L35.95 376.71L34.75 375.61L30.95 376.51V378.31H29.75L28.85 380.51L30.75 381.31L30.15 382.41H28.25L28.45 383.51L25.75 384.21L26.45 386.41H29.35L28.85 387.11L31.35 386.41H32.85L29.75 389.71L25.85 391.21L27.15 392.41L23.35 393.11L21.25 392.31L19.55 394.21L18.75 391.71L12.35 390.81V391.91L8.94999 391.01L8.24999 394.91L10.05 393.11L10.45 395.51L11.25 395.91L12.05 398.11L10.35 398.21L10.15 396.91L6.84999 397.01L10.75 399.71L13.45 399.01L14.25 401.21L10.85 401.91L10.35 403.41L11.25 404.71L7.44999 404.81L8.24999 407.21L6.94999 407.71L8.94999 409.01L10.65 408.41L9.74999 409.71L12.85 409.01L13.65 412.41L21.05 412.31L18.65 414.81L16.85 413.71L14.15 418.41L15.35 418.21L13.15 421.41L8.34999 424.71H10.35L12.95 423.01L14.45 423.91H17.75L19.85 421.81L20.05 422.91L22.75 423.11L16.65 424.81L12.15 424.91L11.05 426.71L7.94999 427.61L9.04999 429.01L8.34999 430.41L9.74999 430.81L7.54999 431.21L5.64999 429.71L4.94999 430.81L4.34999 430.11L0.649994 432.01L1.04999 432.91L9.44999 432.41L6.74999 434.81L3.24999 435.61L1.94999 438.51H4.14999L4.74999 440.21L11.15 438.11L6.34999 441.31L4.34999 443.01H7.74999L12.15 440.51L12.05 442.31L8.14999 444.11H10.25L9.64999 445.41L13.05 444.61L14.85 445.61Z" fill="#D3E8EF" stroke="#74A2C1"/>
<path id="ITALY" fill-rule="evenodd" clip-rule="evenodd" d="M224.15 581.01L223.25 578.11L225.05 574.01H220.95L216.55 571.11L215.95 563.91L212.55 560.41L214.55 558.21L217.75 557.81L218.55 553.21L215.95 550.81L215.55 547.41L216.75 546.01L219.95 547.21L225.25 543.21L228.75 544.91L233.75 536.41L236.95 538.41L236.55 541.61L240.95 543.81L242.35 546.61L245.15 541.61V537.71L251.05 539.41L253.45 539.21L255.85 541.21L256.45 536.01L261.75 534.81L260.35 530.41L263.15 527.01L267.75 529.01L274.95 524.91L277.85 525.71L282.55 525.31L282.15 528.11L288.85 532.11L297.25 533.81L301.85 533.41L303.85 535.21L300.65 539.81L301.55 542.01L299.75 544.81L300.45 549.51L297.35 548.71L295.45 549.61L293.45 551.61H290.35L287.55 554.11L284.45 554.61L283.35 556.71L284.75 559.61L286.65 562.01L284.55 565.11L283.25 566.21L284.75 569.61L285.25 573.51L286.65 575.61L292.65 578.81L295.95 580.61L297.75 582.81L306.75 591.91L306.95 594.31L308.15 594.91L308.25 597.71L310.15 600.41L312.65 603.01L314.65 606.11L318.65 609.21L320.55 611.21L323.15 611.71L324.95 612.81H330.15L332.35 613.41L335.65 612.81L338.05 614.11L337.55 616.01L334.15 618.41L334.05 619.71L335.35 621.91H338.15L343.35 623.21L354.25 629.01L358.45 632.21L361.15 635.01L365.65 636.21L367.85 637.71L368.95 639.61L368.45 643.11L367.25 644.81L367.65 647.01L366.95 647.61L366.85 648.41L364.35 647.31L362.45 644.91L361.25 642.41L361.65 640.31L360.15 639.41H356.15L355.35 638.11L352.55 636.71L350.65 636.91L349.35 637.71L348.45 641.01L346.95 642.71L347.05 644.51L346.55 646.61L344.55 648.01V650.01L345.45 651.41L347.65 651.81L351.55 655.51L352.25 657.01L351.75 660.51L352.45 661.81L351.55 663.81L349.15 664.41L346.95 666.81L346.55 673.21L342.75 676.31L342.15 679.21L340.15 681.91L336.15 682.31L333.05 679.21L332.95 677.11L333.65 676.01L335.35 675.11L337.05 673.21L337.45 670.61L337.05 667.91L337.85 667.41H338.95L340.35 665.61L340.45 663.11L338.95 660.91L337.75 655.91L336.45 654.01L335.85 649.91L334.55 645.51L332.55 644.21L331.05 645.11L327.55 644.31L326.35 641.91L323.55 641.81L322.25 640.41L322.85 639.21L323.25 636.51L321.45 634.31L318.95 634.11L316.55 634.21L316.75 632.31L314.35 631.51L312.85 632.11L311.05 630.91L308.25 625.61L305.55 625.41L302.75 624.21L300.95 625.91H298.45L297.95 623.71L295.75 622.21L293.15 621.81L287.75 617.81L282.05 610.61L280.25 610.01L279.75 607.81L277.25 604.51L273.25 604.41L272.75 601.91L268.95 598.41L266.85 595.81L263.65 594.31L263.75 590.41L261.55 589.11L261.45 586.71L258.95 582.71L257.85 580.61L257.05 579.21L255.85 577.01L251.85 575.81L249.25 573.91L240.05 571.51L232.95 575.51L232.85 577.71L230.45 580.81L224.15 581.01ZM234.15 627.51L235.05 627.41L235.25 626.11L236.45 624.81L235.35 623.91L234.85 625.21L234.05 625.71V627.51H234.15ZM269.25 605.11L270.95 605.81L270.35 604.51L269.25 605.11ZM258.35 597.21L257.15 598.51L258.65 599.11L261.45 598.21L263.65 598.31L263.25 596.81L261.95 595.31L261.35 596.21L258.35 597.21ZM241.35 664.51L242.45 663.91L243.75 664.51L245.75 663.71L245.95 660.51L246.75 658.61L249.35 658.81L251.05 660.51H252.55L253.65 658.51V653.41L254.15 652.01L253.55 646.51L254.65 641.51L251.15 638.41L254.25 636.41L254.75 634.31L254.05 631.11L252.25 629.11L250.25 625.41L249.15 626.51L246.75 624.61L244.65 624.81L239.65 630.71L237.45 630.81L234.35 628.91V632.01L233.85 634.01L236.05 636.11L236.55 638.21L238.35 639.71V642.91L236.35 645.01L237.15 646.71L239.85 646.91V648.11L238.15 650.11L236.85 654.91L238.05 656.71L239.35 662.41L241.35 664.51ZM328.55 700.71L328.35 697.31L329.65 695.61L329.25 692.51L326.75 689.11L329.25 682.41L331.75 680.21L332.25 676.51L330.15 674.01L326.75 677.31L325.35 677.11L322.25 675.41L319.35 678.61L313.05 678.21L307.95 679.71L304.25 679.01L301.65 677.21L298.55 677.61L296.85 679.01L295.95 677.71L292.65 679.21L292.15 683.71L295.05 686.41L297.95 685.91L303.15 689.41L305.95 690.11L308.55 692.91L314.65 695.11L315.95 694.31L318.65 696.21L319.25 698.41L325.65 700.91L328.55 700.71Z" fill="#D3E8EF" stroke="#74A2C1"/>
<path id="LATVIA" fill-rule="evenodd" clip-rule="evenodd" d="M467.45 354.01L467.05 350.11L465.05 347.51L463.65 343.61L462.75 342.31L460.95 338.91L461.45 337.11L460.65 334.91L459.45 333.71L460.05 332.41L459.55 330.01L452.75 329.11L447.95 331.11L445.95 328.01L443.35 326.71L441.95 323.61L437.75 320.91L435.95 320.81L434.85 318.81L432.85 317.31L432.25 319.81L430.45 319.91L427.05 317.31L423.75 318.11L419.55 320.61L418.05 321.21V324.61L419.35 330.61L417.85 335.41L413.45 340.11H410.15L406.95 336.91L406.45 334.51L400.05 327.71L399.85 323.61L398.65 323.71L396.25 326.11L392.35 327.01L391.05 328.31L388.25 328.51L386.15 331.61L386.55 334.41L385.35 334.01L385.45 338.71L381.75 342.91L381.55 345.61L381.65 348.21L379.75 350.11L381.25 356.71L382.75 358.21V358.71L385.25 358.01L386.35 355.21L390.25 351.71L396.35 350.31L401.15 350.81L404.45 350.61L406.25 352.11L408.95 350.01L411.65 349.61L412.25 351.31L414.65 351.41L417.05 354.01L421.25 353.91L422.55 354.51L427.05 351.71L431.85 353.91L436.05 354.61L439.55 358.61L442.65 359.11L445.85 363.51L449.75 363.61L451.15 364.81L455.55 362.81L461.25 362.11L461.85 358.41L464.35 357.21L465.25 354.51L467.45 354.01Z" fill="#D3E8EF" stroke="#74A2C1"/>
<path  id="LICHT" fill-rule="evenodd" clip-rule="evenodd" d="M249.25 520.81L250.75 522.11L250.65 524.61H249.25L248.45 522.91L249.15 521.11L249.25 520.81Z" fill="#D3E8EF" stroke="#74A2C1"/>
<path id="LITHUANIA" fill-rule="evenodd" clip-rule="evenodd" d="M404.95 386.21L404.55 381.41L406.05 379.21L404.65 377.81L402.95 377.41L402.45 374.71L400.55 373.61L395.45 374.91L391.95 373.01L388.15 367.91L383.45 368.81L382.75 368.41L383.95 366.41L383.05 363.01L382.65 358.91L385.15 358.21L386.25 355.41L390.15 351.91L396.25 350.51L401.05 351.01L404.35 350.81L406.15 352.31L408.85 350.21L411.55 349.81L412.15 351.51L414.55 351.61L416.95 354.21L421.15 354.11L422.45 354.71L426.95 351.91L431.75 354.11L435.95 354.81L439.45 358.81L442.55 359.31L445.75 363.71L449.65 363.81L451.05 365.01L447.85 369.21L449.95 370.11V372.91L445.25 375.01L442.65 379.61L440.65 380.01L439.85 384.21L443.55 386.01V388.91H440.45L439.55 387.41L437.15 388.11L435.75 391.81L431.75 391.91L433.15 395.91L430.75 396.11L427.05 397.91L423.55 396.11L418.55 397.61L415.45 399.71L413.75 396.91L413.85 393.61L412.45 388.51L410.55 388.41L407.35 385.91L404.95 386.21Z" fill="#D3E8EF" stroke="#74A2C1"/>
<path id="LUX" fill-rule="evenodd" clip-rule="evenodd" d="M199.45 480.91V479.51L198.35 478.41V476.51L197.45 475.31L198.95 473.41L199.75 470.91H201.55L204.85 475.01L205.45 477.91L206.85 479.21L206.65 483.61L204.75 484.11L201.25 483.41L199.75 480.81H199.45V480.91Z" fill="#D3E8EF" stroke="#74A2C1"/>
<path id="MALTA" fill-rule="evenodd" clip-rule="evenodd" d="M318.15 712.41L318.05 714.31L320.85 716.71L322.25 715.01V713.01L318.15 712.41Z" fill="#D3E8EF" stroke="#74A2C1"/>
<path id="NETH" fill-rule="evenodd" clip-rule="evenodd" d="M199.05 456.61L200.25 453.51L201.15 448.91L200.35 444.91L202.15 442.71L203.85 439.91L207.55 439.01L211.05 439.81L213.05 438.71L211.55 436.11L213.35 434.81L213.75 431.91L214.55 430.21L213.15 428.91L209.75 429.01L209.35 427.21L210.55 424.51L213.35 425.81L215.15 424.31V421.61L216.25 419.21L216.45 417.71L217.25 416.61L217.35 416.01L214.75 415.21L212.65 413.31L208.75 411.31L204.75 411.91L202.35 414.01L200.15 413.11L198.75 414.01L195.45 414.11L192.35 417.51L187.35 420.21L186.25 419.51L183.35 420.71L183.25 424.01L180.55 426.11L181.35 429.31L180.75 432.21L179.55 434.61L178.65 436.31L176.55 437.81L176.65 439.91L179.75 442.71L182.55 443.51H179.45L178.05 444.81L177.15 445.61L178.35 447.11L179.85 447.31L179.95 448.61L177.45 448.71L175.05 446.31L172.65 445.11L170.25 446.01L171.05 447.31L173.25 447.51L175.25 449.41L175.95 449.01L178.55 450.81L176.05 449.91L174.55 450.01L170.75 448.71H168.35L168.25 448.81L169.75 449.51L171.05 451.51H173.15L174.55 453.01L176.05 451.51L178.65 451.01L179.25 450.11L181.25 449.91L182.05 447.91L186.75 448.01L188.45 449.71H190.85L192.15 451.61L195.85 451.41L197.15 453.61L197.05 455.41L199.05 456.61ZM172.75 444.81L175.15 443.71L176.25 445.11L174.95 445.51L174.45 444.81H172.75ZM173.95 442.01H175.85L178.45 443.11L177.95 443.81L176.55 443.41L176.05 442.61L174.35 443.21L173.95 442.01Z" fill="#D3E8EF" stroke="#74A2C1"/>
<path id="POLAND" fill-rule="evenodd" clip-rule="evenodd" d="M377.75 486.91L378.55 487.41L381.05 487.31L382.75 484.81L384.95 484.11L387.05 484.31H390.35L392.25 485.61L394.05 483.81L396.25 483.41L398.35 484.51L400.15 483.71L405.35 483.91L411.05 487.21L414.15 487.41L414.25 483.31L413.65 479.51L422.15 470.11L423.35 465.91L425.35 463.81L427.75 463.71L428.45 459.61L427.55 457.91L427.05 455.81L428.35 454.31L424.95 452.21L423.45 448.21L421.65 446.41L421.55 440.01L421.75 436.31L419.05 431.81L417.85 427.81L419.95 424.41L422.75 423.51L422.65 414.81L420.95 413.51L420.35 410.11L418.45 407.31L416.45 400.91L414.05 397.01L414.15 393.71L412.75 388.61L410.85 388.51L407.65 386.01L389.65 387.81L372.05 386.91L370.55 387.51L365.85 391.61L361.95 392.51L360.85 391.61L364.75 389.41L368.45 385.71L367.25 385.81L364.35 388.61L359.25 391.11L353.25 389.31L352.05 386.11L352.95 383.91L356.05 384.31L357.45 385.21L357.55 384.31L353.75 382.41L346.75 380.61L341.35 383.41L337.35 383.01L333.35 384.71L330.75 388.11L326.85 388.21L324.35 391.01V393.11L320.15 393.21L313.65 396.71L309.25 397.11L307.75 400.41L306.65 403.71L305.75 404.31L305.95 405.61L304.55 405.71L305.95 411.81L305.55 416.41L301.65 418.41V420.31L305.85 424.81L305.35 427.61L307.35 430.21V432.21L308.55 435.11L307.45 437.51L309.95 443.21L311.75 444.11L313.45 446.31L313.65 453.61L312.95 454.81L313.85 456.91L315.05 455.51L317.45 456.01L318.85 455.31L324.35 456.21L324.25 457.71L326.65 460.21L328.85 459.81L330.85 461.61L329.55 464.71L330.65 466.41L331.55 466.91L331.45 469.61L333.35 470.31L334.65 469.01H336.45L333.25 464.81L334.55 464.01L341.05 467.51L345.15 467.01L344.45 469.41L347.35 471.81L352.55 470.61L356.55 471.91L364.95 477.91L367.55 482.41L369.95 482.51L371.15 481.11L374.85 481.21L376.95 483.41L377.75 486.91Z" fill="#D3E8EF" stroke="#74A2C1"/>
<path id="PORTUGAL" d="M28.55 693.01L25.65 691.21L20.35 689.11L16.25 691.91L14.45 690.51L15.75 688.61L17.05 683.51L16.85 676.21L18.15 673.01L17.25 669.21L18.15 668.01H16.05L13.65 670.21L11.85 668.21L12.05 664.71L15.85 662.81L15.25 661.71L15.35 661.11L13.85 662.01L12.35 664.11H8.64999L8.54999 661.51L10.55 653.21L14.05 648.11V645.51L17.25 641.01L17.45 636.51L19.25 632.81L20.45 631.31L18.55 629.21L19.65 625.21L19.15 623.91L20.05 615.31L18.05 610.61L17.85 607.21L24.55 606.11L27.45 606.91L26.95 610.21L27.75 611.51L31.95 609.31L39.35 610.81L41.95 608.21L49.25 609.11L49.75 612.81L52.55 616.91L51.65 620.41H49.45L44.75 625.01L45.35 628.31L44.85 637.41L42.15 640.11L44.55 642.51L40.45 648.21L37.85 647.71L35.35 648.31L38.55 654.21L41.85 656.31L42.05 662.41L37.85 666.61L39.55 669.91L42.85 670.11L42.25 673.51L38.85 676.31L35.95 681.81L37.85 684.91L37.95 689.01L37.45 688.91L36.85 690.01L33.05 690.41L28.55 693.01Z" fill="#D3E8EF" stroke="#74A2C1"/>
<path id="ROMANIA" fill-rule="evenodd" clip-rule="evenodd" d="M415.05 506.21L417.75 506.11L419.65 504.41H422.25L427.25 507.21L431.15 507.31L434.85 509.01L436.15 511.21L439.05 512.61L443.45 511.21L446.25 511.01L448.45 508.31L457.75 506.81L460.95 504.81L469.55 503.31L471.05 509.61L476.55 514.61L477.15 517.31L484.55 523.11L485.45 526.91L487.85 530.91L487.25 543.81L489.05 547.61L491.55 551.81L495.35 552.61H500.45L502.65 550.91L506.85 550.51L509.25 552.41L507.85 553.81L509.25 555.01V557.11L507.25 560.61L504.35 561.21L499.65 561.61L498.95 564.41L497.05 566.31L498.25 568.31L498.05 572.41L496.65 574.91L497.55 578.21L494.35 578.01L493.65 576.71L490.15 574.91L487.55 576.01L486.15 574.51L481.55 572.61L477.35 572.11L473.85 572.71L465.75 576.51L464.55 578.51L461.15 579.71L459.35 580.91L454.25 580.31H451.75L449.05 579.21L446.65 580.31L444.05 579.51L440.05 581.41L435.35 579.61L433.95 580.01L432.45 578.51L428.75 578.31L425.45 580.41L423.95 577.91L424.85 576.51L425.05 574.41L423.25 572.91L419.45 572.71L418.65 569.81L418.25 567.71L420.45 565.11L415.75 564.21L413.35 567.31L411.25 565.31L408.35 566.51L407.15 564.31L402.55 562.81L401.95 561.41L403.65 558.01L399.95 555.21L396.45 553.31L395.55 550.91L391.15 545.61L390.35 543.91L387.75 543.01L390.45 540.21L392.95 539.61L394.15 537.11L397.85 537.51L400.45 535.11L400.35 532.41L405.15 525.21L407.95 516.71L410.85 511.41L414.15 510.81L415.45 507.71L415.05 506.21Z" fill="#D3E8EF" stroke="#74A2C1"/>
<path id="SANMARINO"  fill-rule="evenodd" clip-rule="evenodd" d="M284.95 582.11L286.25 582.01L287.35 579.91L285.25 579.81L284.95 582.11Z" fill="#D3E8EF" stroke="#74A2C1"/>
<path id="SERBIA"  fill-rule="evenodd" clip-rule="evenodd" d="M369.25 547.91L371.15 545.91L374.35 544.21L376.75 544.61L377.55 543.31L380.85 540.51L382.85 541.21L385.75 541.91L390.25 543.41L391.05 545.11L395.45 550.41L396.35 552.81L399.85 554.71L403.55 557.51L401.85 560.91L402.45 562.31L407.05 563.81L408.25 566.01L411.15 564.81L413.25 566.81L415.65 563.71L420.35 564.61L418.15 567.21L418.55 569.31L420.25 574.81L418.05 576.91L419.45 582.41L423.45 586.51L425.35 590.01L424.45 592.81L419.65 597.31L419.85 599.51L421.65 602.31L420.85 604.81H418.65L414.85 605.61L412.25 605.21L406.85 606.51L404.65 608.21L401.85 609.01L398.55 610.81L398.75 613.01L397.55 614.11L396.75 612.41V608.21L395.95 606.21L393.15 604.31L391.95 604.11L390.05 600.91L388.95 600.21L389.35 598.91L391.45 597.11L391.25 594.01L387.85 593.41L385.65 591.31H382.55L381.25 589.81V588.11L378.45 585.31L379.25 584.41L376.15 580.91V577.81L377.55 577.01L379.95 578.31L380.85 576.61L379.15 574.91L377.15 574.81L373.15 571.61L373.05 569.71L375.85 565.61L376.25 562.11L374.55 562.01L373.35 562.81L372.65 561.91L372.25 559.71L374.85 558.81H376.15V557.71L373.55 557.11L372.25 555.91L371.45 552.21L369.75 548.21L369.25 547.91Z" fill="#D3E8EF" stroke="#74A2C1"/>
<path  id="SLOVAKIA" fill-rule="evenodd" clip-rule="evenodd" d="M342.95 507.21L352.15 512.51L356.95 513.41L361.55 511.71L368.95 511.01L369.35 508.41L373.25 507.11L377.75 503.31L381.55 507.41L381.95 504.81L384.45 502.81L386.85 499.11L391.45 498.71L394.65 499.51L400.15 499.11L404.35 500.01L408.05 497.61L408.65 493.01L411.45 487.01L411.05 486.91L405.35 483.61L400.15 483.41L398.35 484.21L396.25 483.11L394.05 483.51L392.25 485.31L390.35 484.01H387.05L384.95 483.81L382.75 484.51L381.05 487.01L378.55 487.11L377.75 486.61V486.81L371.45 486.21L368.55 488.81L365.05 489.21L361.15 493.11L356.05 493.81L350.85 495.61L349.55 494.51L346.35 494.61L343.05 496.81L342.35 496.61L342.15 501.11L342.95 507.21Z" fill="#D3E8EF" stroke="#74A2C1"/>
<path  id="SLOVENIA" fill-rule="evenodd" clip-rule="evenodd" d="M301.05 555.31L305.85 554.91L309.35 552.41L312.15 551.61L317.35 554.01L320.05 553.81L320.85 549.11L325.25 546.91L325.85 543.41L334.25 539.01H340.25L339.65 533.81L336.15 529.81L332.85 531.01L326.85 534.31L325.45 534.21L323.45 534.41L320.25 535.91H317.35L314.05 537.21L312.25 535.01L306.15 535.11L303.95 534.91L300.75 539.41L301.85 541.61L300.05 544.31L300.65 549.01L300.85 549.11L303.55 550.31L303.45 552.21L301.25 552.91L301.05 555.31Z" fill="#D3E8EF" stroke="#74A2C1"/>
<path  id="SPAIN" fill-rule="evenodd" clip-rule="evenodd" d="M110.25 585.51L112.65 586.81L112.85 587.51L114.55 587.71L115.05 590.51L114.65 592.61L118.65 592.11L124.05 594.21L126.65 597.01L129.45 595.71L132.55 598.91L136.35 598.81L138.25 599.71L140.65 597.21L146.95 597.01L149.35 598.31L153.15 597.91L157.15 600.01L163.65 599.41L168.25 602.21L170.05 602.81L170.15 604.31L167.95 605.71L168.65 610.11L168.25 613.51L166.85 616.11L161.65 619.31C160.95 620.41 160.15 621.31 159.25 622.21L154.85 624.01L149.55 623.81L146.15 626.31L143.05 628.01L144.45 629.31L143.75 632.51L141.85 633.71L141.45 633.31L141.95 632.81L140.55 632.31L136.55 639.01L133.75 640.31L128.45 649.11L126.95 651.11L129.35 655.01L129.95 657.71L132.05 658.91L135.45 663.61L132.35 666.51L127.75 667.71L127.85 670.91L123.45 677.01L122.95 681.11L124.15 682.31L122.95 684.11L118.25 684.31L109.85 688.31V691.11L106.65 696.31L103.75 694.91L101.15 692.51L99.85 694.91L97.65 696.81L95.45 695.01L93.05 694.91L92.15 696.11L88.35 695.71L82.65 694.21L80.45 695.41L75.45 696.01L71.05 700.41L65.95 701.01L64.05 702.81L63.95 705.01L59.95 707.11L55.55 706.51L50.95 702.01L48.35 695.51L48.95 694.61L43.25 689.21L39.25 688.71L37.05 688.11L36.95 684.91L34.95 681.71L38.15 675.71L41.55 673.01L41.95 670.41L39.05 670.21L37.05 666.21L41.45 661.81L41.25 656.31L38.05 654.31L34.55 647.61L37.95 646.81L40.35 647.21L43.85 642.21L41.45 639.81L44.35 636.91L44.75 628.21L44.15 624.71L49.35 619.71H51.35L52.15 616.91L49.35 612.91L48.95 609.41L42.35 608.61L39.75 611.21L32.25 609.71L27.65 612.11L26.45 610.11L26.85 607.21L24.45 606.61L18.35 607.51L18.25 606.71L21.45 603.91L19.25 603.41L20.75 601.71L19.65 600.61L20.25 597.71L18.05 599.81L16.95 599.41L17.65 595.51L16.45 595.01L16.55 593.51L14.75 594.11L13.45 591.21L14.85 588.11L20.05 586.21L21.85 587.01L26.25 586.51L28.35 585.01L26.65 583.81L26.25 581.91L31.25 579.11L31.95 580.01L34.05 578.61L37.45 579.31L40.35 583.01L42.85 580.91H45.65L48.85 582.31L52.35 580.91L56.75 579.61L57.65 580.91L61.15 582.91L70.95 584.41L75.45 585.51L82.05 582.71L87.05 583.11L87.95 585.31L92.75 586.21L95.25 583.71H97.65L104.95 587.91L106.25 585.91L108.25 585.71L109.45 585.01L110.25 585.51ZM176.65 645.81L181.15 646.21L183.35 647.41L184.05 646.01L181.25 643.21L177.25 644.01L176.65 645.81ZM168.75 655.01L169.95 651.51L173.05 648.71L170.25 648.51L167.05 648.01L164.35 649.81L163.75 652.21L166.55 653.11L168.75 655.01ZM151.95 664.11L153.45 662.01L154.95 660.51L153.85 658.71L150.35 659.81L149.95 662.31L151.95 664.11Z" fill="#D3E8EF" stroke="#74A2C1"/>
<path  id="SWEDEN" fill-rule="evenodd" clip-rule="evenodd" d="M261.45 299.61L263.15 300.81L264.65 303.61L266.15 300.81L265.55 292.31L263.45 288.61L264.55 286.21L266.45 285.31L265.05 282.51L265.95 280.81L270.15 280.41L271.35 278.31L271.15 275.51L273.15 271.31L271.15 268.51L270.25 262.21L267.65 257.11L267.85 254.91L274.15 252.81L274.25 248.31L275.55 245.21L270.85 240.01L266.85 238.01L266.65 232.81L267.55 227.71L266.85 222.21L265.35 218.41L266.55 214.21L265.75 207.01L264.45 199.91L265.35 193.81L268.45 188.41L271.35 186.61L275.05 187.41L279.75 187.61L282.15 184.31L281.75 179.11L280.45 177.01L280.65 173.61L285.25 162.21L285.45 155.61L286.85 149.31L288.25 145.81L288.15 141.81L286.15 139.81L286.25 137.01L290.65 134.41L295.35 133.51L297.45 131.61L297.65 128.81L301.45 122.21L305.35 116.81L306.65 113.61L305.15 109.61L303.65 107.81L303.55 101.41L305.35 100.51L307.05 98.31L307.85 94.91L309.75 94.01L311.85 89.41L314.65 87.21L317.75 88.61L319.05 90.11L320.85 89.71L322.95 87.81L321.25 85.01L322.95 83.51V82.01L323.65 80.51L321.45 77.11L322.85 76.21L326.85 76.31L329.75 74.81L334.35 76.01L337.15 77.91L340.35 78.31L342.15 79.81L343.55 79.31L344.85 80.11V77.01L343.35 74.91L343.75 70.71L345.95 69.51L345.25 66.71L343.05 65.51L342.85 62.71L346.05 63.61L349.15 63.01L350.25 62.51L352.45 65.21L355.95 67.01L360.75 72.71L364.25 75.41L369.55 75.81L371.65 77.11L373.55 77.61L376.25 80.71L377.15 83.31L378.35 83.51L379.25 83.31L381.65 86.61H383.55L384.95 88.61L383.85 91.11L384.55 95.11L383.35 98.31L383.55 101.01L387.25 101.21L388.05 104.41L386.75 106.41L387.25 110.21L388.75 112.41L389.65 117.41L388.95 119.61L389.55 121.71V127.01L388.75 129.01L390.15 133.01L392.75 133.91L395.15 139.01L396.65 140.71L396.55 143.61L396.45 143.51L394.65 144.81L392.05 144.61L390.55 142.71L387.35 144.81L385.15 143.51L383.95 145.71L381.55 144.81L380.45 142.61L378.25 145.31L376.55 142.21L375.15 143.41L374.75 146.01L373.85 148.21L371.85 148.71L370.65 147.21L368.85 146.61L370.55 149.91L372.35 151.21L370.15 153.31L367.75 153.21L365.65 154.41L368.15 155.61L368.05 157.31L366.95 157.71L366.35 156.81L364.65 156.01L363.75 156.91L364.95 158.91H366.65L367.95 160.61L367.15 162.11L365.45 166.91L366.05 168.91L362.75 169.51L365.45 171.61L367.65 172.11L368.45 173.91L366.75 174.51L368.25 176.71H370.25L367.55 180.11L365.75 180.21L363.75 182.61L364.25 187.11L361.55 191.71L359.75 191.61L356.95 194.31L355.55 192.41L355.05 194.81L356.15 197.31L352.85 199.21L351.45 202.01L349.75 201.91L349.35 199.91H347.25L345.95 202.71V205.91L344.05 207.61L342.85 205.81H341.65L340.95 208.71L339.65 209.11L338.45 207.71L336.65 209.61L335.85 211.81L337.75 212.31L337.55 213.81L333.75 217.01L331.35 216.41L330.65 217.81L331.85 220.21L329.65 223.51L325.65 224.21L323.45 223.41L326.65 227.41L327.05 230.81L326.35 231.91L326.85 235.01L326.15 239.01L328.25 241.21L327.85 243.91L326.05 242.41L325.45 243.21L326.25 247.21L324.15 249.81L326.25 250.61V252.31L324.95 253.01L326.35 256.11L324.45 258.51L325.95 260.21L327.25 262.31L329.15 262.81V265.41L330.45 264.61L331.85 267.11L334.25 264.21L336.15 265.71L336.75 268.11L341.55 271.91L340.85 273.41L344.85 275.81V277.91L347.55 280.51L345.75 284.61L342.35 288.41L341.45 291.21L337.65 292.11L335.45 291.01L335.85 289.21L332.65 288.01L331.35 286.71L331.25 288.41L329.55 288.51L328.35 287.21L325.95 286.71L325.05 288.51L322.95 289.11L321.75 287.91L319.75 290.51L317.55 289.31L315.55 290.11L315.65 291.21L319.75 291.71L320.85 292.51L321.25 291.21L324.95 291.11L326.75 292.31L329.65 292.81L331.45 295.21L333.65 293.91L335.05 294.61L337.45 293.31L340.75 294.21L342.45 295.61L342.85 298.21L340.95 299.71H339.05L336.65 303.41L335.15 303.31L335.65 300.81L334.75 299.51L333.65 300.91L334.15 302.71L332.25 302.91L330.35 305.01L329.95 307.81L327.75 306.01L327.85 307.81L326.35 309.21L325.85 308.61H324.45L322.95 310.51L325.15 310.91L327.85 313.71L322.75 313.91L326.85 315.31L327.05 317.01L325.65 320.11L328.55 322.81L325.35 323.41L322.25 322.21L323.95 324.81L322.65 327.21L325.75 329.11L323.35 331.31L325.55 334.11L323.35 336.71L322.95 339.51L325.35 341.61L324.05 343.81L323.55 350.51L321.35 352.91L320.45 358.31L317.35 362.01L315.95 360.11L313.45 358.91L310.35 360.61L305.35 359.81L304.65 357.81L303.75 362.21L299.55 362.71L297.65 367.21L299.15 368.51L299.35 370.71L296.65 373.21L293.25 371.91L286.25 373.81H283.55L282.15 372.51L283.65 370.01L282.35 363.51L279.55 362.71L279.05 360.21L277.15 359.01L277.65 357.61L281.05 357.11L283.05 353.31L282.25 350.01L279.35 351.71L277.25 348.81L276.55 346.21L273.75 345.01L273.35 341.11L270.85 336.01L269.55 334.91L268.15 331.41L265.95 330.81L264.45 328.61L265.75 327.31L266.15 324.21L265.35 322.11L265.85 319.91L268.55 317.71L267.85 316.31L265.65 315.01L266.25 313.71H264.95L264.55 315.81L266.45 317.81L263.35 319.11L263.85 316.21L263.15 315.11L261.15 314.01L260.95 309.51L259.85 307.81L259.35 301.91L261.45 300.71V299.61ZM342.15 291.51L344.15 294.71L345.25 295.61V292.21L347.95 289.81V287.61H344.65L342.15 291.51ZM262.85 319.21L262.75 321.21L264.15 321.11L264.75 318.71L262.85 319.21ZM354.25 310.51L355.45 312.71L356.85 310.91L355.45 309.71L354.25 310.51ZM355.35 323.21L356.25 324.51L357.75 323.11L360.25 322.41L359.65 321.51L356.85 321.61L355.35 323.21ZM345.75 344.41L348.95 343.51L349.55 341.81L348.65 341.11L349.15 339.41L352.35 336.91L352.75 335.11L354.75 332.71L354.55 331.51L352.65 329.71L353.75 327.31L353.95 325.81L355.15 324.71L353.65 323.91L352.25 324.71H349.35L347.45 327.11L346.15 329.61L344.25 331.51L345.05 334.61L343.95 335.21L346.65 339.21L347.75 338.81L347.15 341.01L345.65 343.01L345.75 344.41ZM325.25 352.71L325.65 355.31V357.21L326.55 358.11L327.45 355.71L328.95 351.31L329.45 346.71L330.85 342.01L331.35 337.91L329.85 336.21L328.15 338.81L328.55 340.01L327.65 344.11L326.15 345.01L325.25 352.71Z" fill="#D3E8EF" stroke="#74A2C1"/>
<path  id="SWI" fill-rule="evenodd" clip-rule="evenodd" d="M224.95 515.91L227.15 516.51L229.75 515.21L233.05 516.41L234.15 514.61L233.75 512.91L236.55 512.01L237.45 514.61L239.15 515.21L240.55 513.91L242.45 514.01L246.25 516.71L249.35 518.81L249.15 521.01L248.45 522.81L249.25 524.51L252.95 524.61L254.65 524.01L257.45 526.71L259.85 524.61H262.05L263.15 526.81L260.45 530.11L261.85 534.51L256.55 535.71L255.95 540.91L253.45 538.91L251.05 539.11L245.15 537.41V541.21L242.35 546.21L240.95 543.51L236.55 541.31L237.05 538.11L233.85 536.11L228.75 544.71L225.25 543.01L219.95 547.01L217.05 545.91L216.55 543.51L214.85 542.21L213.95 538.91L212.55 536.31L208.55 536.11L206.65 537.81L207.95 541.21L204.55 542.61L201.65 542.21L201.25 540.11L202.95 539.31L204.65 539.41L204.55 536.71L205.15 532.61L208.85 526.91L210.85 526.11L213.55 522.71L216.05 521.51L215.55 518.91L212.65 517.51L214.45 515.31L217.65 515.21L218.45 517.01L220.95 517.21L224.95 515.91Z" fill="#D3E8EF" stroke="#74A2C1"/>
<path  id="TRUK" fill-rule="evenodd" clip-rule="evenodd" d="M468.15 629.31L471.05 628.61L472.55 625.41L471.95 622.51L475.45 620.41L475.65 617.01L472.85 615.81L473.45 612.01L475.65 609.61L477.75 609.41L479.25 607.61H483.25L487.05 610.51L489.05 609.01L492.15 609.81L492.55 614.81L496.65 618.51L499.75 618.91L502.95 622.11L505.75 623.61V625.41L503.35 627.81L499.95 627.41L498.05 626.31H494.85L493.55 627.51L488.85 627.41L486.05 628.61L484.65 632.41L477.45 636.11L471.65 641.11L471.45 639.21L472.85 635.21L474.35 635.11L477.05 633.31L474.45 633.71L472.75 633.21L471.25 633.61L469.05 632.31L467.85 629.91H467.75L468.15 629.31ZM670.15 612.51L669.55 613.41L667.85 616.91L664.45 619.01L659.85 621.41L659.05 623.51L654.85 623.91L653.15 625.31L647.45 624.01L645.75 622.91H643.75L642.95 622.41L640.25 623.21L635.25 623.61L629.35 626.01L624.65 625.11L621.45 623.01L619.75 624.21L614.45 621.61L611.75 621.21L606.95 618.01H605.55L604.35 619.81L601.95 619.31L599.55 616.11L598.95 612.81L596.85 610.91L595.35 611.31L592.05 614.61L590.85 614.01L589.55 614.81L584.55 610.21L584.05 607.51L583.25 607.11L579.95 608.81H575.55L573.45 608.11L570.75 608.81L564.05 608.41L560.75 609.11L554.35 611.91L551.45 612.31L546.35 613.21L544.95 615.21L542.55 615.81L540.35 618.21L539.05 618.91L537.65 622.21L536.35 623.01L536.55 624.41L531.55 624.81L524.25 622.11H522.05L520.35 623.41L517.25 622.81L513.15 623.91L511.05 623.21L507.65 624.11L507.05 626.01L509.55 630.11L513.45 630.21L516.65 630.71L516.15 632.11L510.45 632.21L505.45 633.61L503.65 635.81L504.55 637.21L507.15 636.41L508.25 637.91L506.15 638.61L499.75 638.71L497.05 637.31L493.85 638.71L492.35 636.51L490.55 636.61L488.15 639.31L485.95 639.21L482.65 636.61H479.45L473.15 641.41L472.25 643.91L471.15 646.31L472.25 648.11L472.15 650.91L471.25 652.11L472.15 653.81L475.85 652.51L476.95 652.91L479.65 652.31L482.95 652.41L479.75 655.51L480.15 657.61L481.45 659.81L481.35 661.51L481.15 662.71L482.05 663.31L484.55 661.61L484.75 663.01L483.05 664.81L479.65 666.91L480.85 667.71L482.85 667.91L480.85 669.21L479.65 671.61H478.25L476.75 667.91L475.65 667.41L475.15 669.61L476.05 672.21L474.85 673.51L475.25 675.51L477.65 676.91L478.15 675.71L480.85 678.11L482.95 677.61L486.05 679.51L486.85 682.71L484.65 684.91L486.45 686.61L486.55 688.31L488.35 688.41L491.75 691.71L490.55 693.91L488.35 693.31L487.85 694.81L489.65 695.51L493.75 694.41H499.55L499.05 695.61L497.75 697.01L494.85 698.31L490.35 698.11L489.25 699.61L490.95 700.11L493.15 699.41H496.25L497.65 698.71V700.71L498.45 701.41L499.95 699.41L501.85 697.21L503.85 697.11L505.25 698.81H507.05L509.65 700.31L510.95 698.51L513.05 698.91L512.65 700.31L511.55 700.81L512.85 702.71L513.25 704.61L516.15 707.01L517.25 706.51L520.45 707.81L523.75 707.31L525.25 706.01H527.95L529.45 704.61L531.85 705.91L533.55 705.01L533.15 701.81L533.65 700.11L533.15 697.21L539.05 696.71L544.05 697.11L550.75 700.51H553.15L557.55 706.41L561.35 708.81L573.85 707.31L577.65 705.81H578.95L579.55 706.41L581.35 705.21L581.95 702.81L587.85 696.11L589.25 695.71L594.95 697.71L598.35 699.21L602.55 698.41L602.95 697.21L606.05 695.01L608.25 695.71L608.65 697.71L606.55 701.01L603.95 703.11L604.05 704.51L606.55 707.41L605.95 709.31L608.65 709.81L611.45 709.31L614.15 708.41L613.95 705.31L615.75 704.21L615.85 699.01L616.65 696.81L620.65 697.71L623.05 698.31L629.65 695.71L631.15 695.51L633.15 694.31L640.35 693.61L642.95 694.31L644.35 695.61L648.85 696.51L655.15 696.71L655.75 695.51L659.25 694.41L661.45 692.21L666.25 690.71H669.65L672.35 690.21L679.35 690.61L684.75 688.71L688.65 688.61L689.75 689.51L693.55 686.41H696.85L698.25 685.31H703.95L708.65 686.51L712.15 685.61L714.05 686.81L713.95 689.51L716.35 690.61L719.45 689.71L720.15 687.31L718.85 684.11L715.75 678.81L712.05 677.41L712.25 675.91L712.05 671.91L713.85 667.81L712.95 666.11L709.75 665.71V661.91L710.15 659.31L708.85 654.11L707.45 651.41L707.35 650.01L711.25 649.61L712.65 645.91L714.15 644.61L712.65 642.01L710.25 639.61L707.55 639.81L703.35 639.61L699.35 637.21L699.15 631.81L700.05 627.61L698.55 624.81L696.05 624.21L695.85 622.51L693.45 619.91L690.95 619.31L685.15 614.51L682.95 613.91L680.95 615.61L679.15 615.81L675.65 614.41L674.35 616.11L672.85 615.61L672.25 613.11L670.15 612.51ZM494.65 701.71L495.55 700.81H496.75L496.95 701.71L495.75 702.11L494.65 701.71ZM464.15 640.11L466.25 640.91L468.95 640.21L469.35 638.71L468.05 637.91L466.65 639.01H464.75L464.15 640.11Z" fill="#D3E8EF" stroke="#74A2C1"/>
<path  id="UK" fill-rule="evenodd" clip-rule="evenodd" d="M54.95 400.01L52.05 398.01L50.05 397.61L47.45 392.41L43.45 390.41L41.75 391.61L40.95 395.41L38.95 395.81L33.15 390.51L36.05 384.41L38.85 384.01L39.65 381.61L41.55 380.71L42.85 379.31L45.45 378.81L46.25 377.91L47.75 377.81L50.35 376.01L54.45 376.51L56.45 377.61L56.65 380.21L60.65 385.91L58.65 387.41L62.35 387.61L63.15 393.61L61.65 388.91L60.15 389.11L60.95 390.61L60.15 392.71L62.15 393.21L61.65 395.41L58.35 395.01L58.15 396.91L56.05 398.61L54.75 398.21L54.95 400.21V400.01ZM112.75 279.21L113.95 277.01L114.75 277.71L112.75 279.21ZM117.95 262.81L117.25 261.51L119.05 259.71L117.95 262.81ZM112.25 269.21L112.45 265.91L110.55 266.41L110.05 268.11C110.15 268.01 112.15 269.21 112.25 269.21ZM115.15 267.31L113.75 265.81L114.85 264.11L115.05 262.31L115.95 263.01V266.11L115.15 267.31ZM113.85 275.41L112.65 273.21L109.35 273.11L108.25 271.71L109.95 271.01L112.75 271.21L112.95 269.91L112.35 269.01L113.15 268.21L114.65 269.01L116.55 269.61L115.35 270.81L115.75 272.31L114.45 273.61L115.05 275.81L113.85 275.41ZM140.55 448.21L142.25 449.01L143.65 448.61L142.85 447.71H141.55L140.55 448.21ZM112.35 463.91L116.05 462.01L117.35 463.11L118.65 463.01L117.75 464.51V465.41L115.95 465.81L114.05 464.41L112.35 463.91ZM67.75 363.71L67.55 365.61L69.05 366.91L68.95 365.01L67.75 363.71ZM54.95 361.41L55.75 358.81L56.15 360.21L54.95 361.41ZM47.25 352.91L47.45 350.91L49.65 351.01L47.25 352.91ZM50.65 350.11L53.05 347.31L52.45 349.41L50.65 350.11ZM56.25 344.71L57.45 343.41H56.15L56.25 344.71ZM53.65 341.11L54.75 343.21L55.65 342.41L54.95 340.91L53.65 341.11ZM89.35 300.31L90.45 301.51L90.65 300.11L89.35 300.31ZM86.65 301.41L88.65 301.31L90.35 302.81L89.45 304.01L92.35 303.81V305.91L90.95 305.01L88.35 305.41L88.25 303.41L87.65 305.11L86.75 304.01V301.41H86.65ZM86.45 305.91L87.95 308.31L88.55 307.01L87.65 305.61L86.45 305.91ZM47.15 322.41L48.35 321.51L46.95 320.01L48.45 318.11L51.25 319.41L50.55 317.31L56.65 312.91L57.15 316.41L54.75 318.61L53.95 320.61L54.75 321.21L53.05 323.71L50.65 323.11L48.25 323.51L47.15 322.41ZM46.85 326.41L48.55 327.71L51.65 325.01L49.55 324.11L48.35 324.71L47.85 325.91L46.85 326.41ZM46.35 330.61L43.95 331.21L41.95 329.31L43.05 328.71L46.45 329.11L46.35 330.61ZM44.85 333.81L43.05 333.11V332.31L45.55 331.91L44.85 333.81ZM42.45 340.51L43.05 342.21L41.25 343.41L41.35 342.01L42.45 340.51ZM44.75 339.61L44.25 337.41L44.95 336.11L44.75 334.41L43.35 334.21L43.45 335.91L42.75 337.61L43.25 339.41L44.75 339.61ZM58.35 341.21L58.15 338.61L54.95 339.01L53.05 335.71L53.45 334.91L52.55 334.21L52.45 335.31L49.95 333.41L51.05 332.31L51.95 332.91L51.85 330.51L54.75 332.51L54.35 329.41L55.65 328.81L57.05 331.21L56.65 335.81L59.35 337.21L60.85 336.81L61.75 337.51L59.85 338.61L59.05 341.01L58.35 341.21ZM54.05 356.01L59.15 354.81L59.35 355.61L61.75 353.81L60.85 351.61L59.05 351.41L56.85 348.91L54.35 350.71L57.85 352.51L55.85 353.61L56.35 354.41L54.05 356.01ZM57.85 365.51L56.95 363.01L61.65 358.61L59.55 363.21L57.85 365.51ZM54.35 369.11L57.15 367.41L55.95 362.91L52.05 364.61V368.11L54.55 366.41L54.35 369.11ZM64.45 368.51L65.15 372.51L67.75 373.61L68.55 370.91L66.75 367.01L64.45 368.51ZM73.55 413.81L77.35 415.71L80.55 413.11L78.15 413.31L77.05 411.11L74.25 411.51C74.25 411.51 73.55 413.71 73.55 413.81ZM70.95 399.31L72.05 395.81L76.55 391.91L76.05 394.31L76.55 395.71L73.25 399.01L70.95 399.31ZM65.75 477.61L67.15 476.21L66.55 475.11L67.95 473.31L68.65 474.11L70.35 472.41H71.55L72.35 470.41L74.95 471.11L76.95 470.21L78.65 470.41L79.85 469.81L81.05 471.31L82.35 471.21L84.25 472.71L86.45 472.61L85.95 471.21L87.65 470.41L88.15 469.11L87.65 466.71L89.15 465.21L90.35 465.11L90.95 464.21L95.75 463.01L98.35 463.21L101.25 465.21L102.35 464.71L105.55 464.81L107.35 465.41L108.15 463.31L111.05 461.81L113.05 462.41L115.85 460.51L117.85 461.01L118.95 460.91L120.35 459.81L120.85 460.91L122.65 461.81L124.65 460.51L129.15 460.41L131.95 459.81L134.65 460.71L135.95 460.91L137.95 459.21L140.15 458.71L142.15 456.81L143.45 456.71L144.85 457.11L144.45 455.61L147.65 453.41L149.65 452.91L149.75 450.91L149.15 449.51L149.75 447.81L146.25 447.91L143.65 448.81L142.15 449.01L139.75 448.21L138.85 448.01L139.65 447.31L140.35 447.21L140.55 446.71L138.45 446.11L136.55 446.81L139.15 445.01L140.95 445.21L143.05 444.11L142.45 442.31H140.35L141.85 440.91L143.05 439.71L144.35 440.81L146.25 439.41L147.05 438.21L146.15 438.01L146.75 437.11L144.55 436.91L145.45 435.41L146.85 435.81L147.35 436.91L149.05 434.81L150.55 434.21L150.75 430.21L152.15 426.51L150.95 425.01L150.35 421.61L145.75 418.11L139.35 417.71L135.35 417.81L134.95 420.61L133.85 422.31L131.75 419.91L129.25 419.31L133.25 415.41V413.11L130.15 408.01L128.85 407.81L126.15 406.11L124.95 404.11L123.55 404.31L122.65 404.71L120.95 404.11H120.05L121.95 403.61L123.15 404.01L125.15 403.51L126.45 404.11L127.55 405.21L128.95 405.01L130.25 405.41L126.55 400.81L124.75 398.61L125.85 396.81L126.75 396.41L124.95 395.51L124.15 394.11L123.35 394.01L121.25 390.01L117.95 388.31L113.35 387.21L113.15 385.41L112.05 384.81L110.65 379.81L108.95 377.11L107.75 370.71L106.45 368.61H105.15L101.25 362.91L99.05 362.31L97.25 360.91L94.35 359.71L93.15 360.81L90.75 362.31L87.45 361.21L85.95 361.41L83.35 360.61L82.55 359.21L84.05 360.01L87.15 360.21L89.75 359.41L90.55 357.31L93.15 357.41L95.55 355.61L93.05 354.41L92.95 353.01L92.05 352.21L88.65 354.01L88.45 353.81L91.05 351.91L94.15 352.11L95.95 350.41L96.35 349.01L97.65 348.21L99.45 344.71L100.65 343.01L100.55 341.81L101.85 339.41L101.35 338.61L102.55 335.31L104.75 333.41V331.31L101.55 328.41L100.85 329.01L95.35 329.11L91.95 328.51L91.05 329.21H89.35L87.25 328.51L85.85 328.61L85.65 329.31L83.55 329.91L81.35 331.11H80.45L78.95 332.31L78.45 331.81L80.45 329.41L82.55 326.01L81.05 326.81L79.15 326.11L80.35 325.41L80.85 323.71L86.15 319.71L87.65 317.11L89.45 316.51L90.35 314.11L89.45 313.01L90.55 311.31L90.45 310.21H87.75L86.65 311.41L84.85 310.91L82.25 312.11L79.85 311.91L77.85 312.71H76.65L75.45 313.81L75.65 312.61L74.55 312.11L72.35 314.11L73.05 312.31L69.95 310.91L69.45 312.81L68.35 313.61L68.75 315.41H68.15L68.25 317.51L66.05 318.01L67.15 319.91L66.25 321.81H65.15L67.85 324.21L68.75 325.91L66.05 324.51L65.15 325.31L63.15 324.01L63.05 324.91L63.55 326.21L62.95 327.11L61.85 325.11L60.95 327.21L62.05 328.41L61.25 329.61L62.95 331.51H64.45L62.65 332.21L60.75 331.11L61.25 334.01V335.11L64.65 334.51L62.45 335.61L62.25 336.21L62.95 336.71L65.05 335.91L64.55 336.51L65.45 337.61L63.75 337.01L63.05 337.51L62.55 338.91L63.35 339.51L62.05 339.71L61.25 341.01L62.75 341.51L63.15 342.71L60.65 341.81L60.15 343.51L61.05 344.21L60.45 345.31L59.25 346.11H56.85L55.75 347.21L56.65 347.81L58.65 347.71L60.05 348.21L59.55 348.91H58.05L60.15 350.91L60.85 350.71L61.95 351.91L67.45 346.21L66.55 347.91L67.35 348.51L65.65 349.11L64.35 352.31L64.45 353.11L62.75 356.41L63.45 356.91L62.05 360.91L62.45 363.41L61.35 364.91L62.15 366.21L63.05 365.71L61.25 368.51L60.85 372.41L59.55 373.71L59.65 374.61H62.55L62.05 372.61L63.35 369.71L63.25 367.91L64.75 366.01L63.55 361.21H64.65L68.05 357.11L65.45 361.01L65.05 363.81L65.95 364.51L66.15 362.81L67.95 361.41L68.75 364.01L70.15 360.81L69.75 358.61L70.95 358.01L70.45 360.81L73.35 363.01L70.85 362.31L69.95 366.01L70.55 368.71L72.05 369.11L72.95 371.51L70.75 373.71L68.55 379.61L69.05 382.21L67.05 380.91L67.15 383.71L69.85 387.51L69.05 384.01L70.95 383.41L75.75 386.91L75.85 384.21L73.85 382.71L75.15 382.31L79.05 384.71L81.75 384.21V383.01L84.25 383.11L84.95 380.71L91.75 380.91L87.25 382.11L84.55 389.91L87.85 395.91L89.55 395.01V398.21L91.75 395.51L94.45 396.01L93.55 399.31L94.35 399.81L91.65 401.91L92.45 405.61L90.95 408.41L92.65 410.51L94.65 412.31L96.35 412.41L95.25 413.21L93.45 413.31L91.95 411.11L90.45 411.71L91.75 413.81L93.05 414.61L90.95 414.11L89.15 412.31L84.75 413.71L82.75 413.31L78.25 415.51L75.85 418.81L72.55 420.91L71.15 422.91L73.25 422.51L74.35 422.91L74.75 421.71L79.35 420.51L78.85 423.01L80.55 424.71L78.85 426.01L79.75 427.91L80.85 428.11L77.75 433.91L75.55 434.61L73.35 436.31H72.25L69.45 438.11H67.35L64.05 440.21L66.65 440.61L66.75 442.51L64.85 443.41L68.15 444.01L67.35 444.81L68.65 445.51L70.55 444.91L72.75 443.61L76.25 442.41L76.65 444.11L79.45 444.81L77.25 445.41L77.05 446.71L80.95 446.81V446.11L82.85 445.51L84.85 447.71L86.65 449.81H91.15L92.25 448.01L94.35 447.11L97.15 446.01L98.25 444.31L100.65 443.11L97.35 446.91L94.05 450.11L93.95 453.81L91.75 453.71L89.95 454.31L87.95 453.21L82.15 452.61L78.15 453.71V455.81L76.35 457.51H73.95L73.55 462.21L71.15 464.31L70.55 465.51L67.95 466.01L67.25 468.71H66.05L65.45 470.11L62.25 472.51L60.85 472.01L58.45 474.01V476.11L60.95 476.21L61.05 474.31L63.95 475.11L65.75 477.61Z" fill="#D3E8EF" stroke="#74A2C1"/>
<path  id="UKRAIN" fill-rule="evenodd" clip-rule="evenodd" d="M421.45 437.71L423.65 437.31L428.15 439.71L430.55 438.41L440.15 437.01L444.65 436.81L447.45 434.41L449.15 434.51L452.55 436.41L460.45 437.61L463.85 439.31L464.45 441.01L469.15 439.11L471.55 441.11H473.35L474.65 439.81L478.75 440.41L480.65 441.31L484.85 438.71L488.65 439.21L489.25 441.81L491.45 442.61L494.05 439.41L496.85 439.31L499.25 440.81L503.25 439.61L505.65 441.61L508.55 441.21L508.95 436.61L510.85 431.31L514.95 430.91L520.85 429.41L523.35 430.01L526.55 429.31L526.35 426.51L528.35 424.61L535.15 426.81H542.25L545.75 424.91L548.85 425.11L550.95 431.51L553.85 433.91L552.15 437.01L555.95 442.01L563.65 440.91L566.35 443.31L566.85 446.11L569.45 446.61V450.41L570.85 454.81L577.15 460.91L579.65 458.11L583.55 460.21L586.75 459.31L589.65 459.91L594.35 456.41L596.45 456.21L599.55 462.91L603.95 465.51L605.25 468.21L607.05 466.31L612.15 467.41L615.85 467.51L618.35 469.21L621.45 468.61L624.95 470.81L629.05 471.61L631.15 469.51L632.35 472.71L634.25 473.81L634.35 477.51L632.15 480.61L629.25 481.21L628.45 487.21L632.35 489.91L632.95 493.91L631.25 499.01L631.75 502.41L629.25 504.31L622.65 504.81L619.75 509.51L617.85 510.31L617.15 516.81L614.55 517.61L614.15 516.21L612.75 516.01L609.35 517.51L605.85 517.11L604.05 518.41L602.95 520.91L599.85 521.01L598.45 523.11L595.55 526.31L594.45 525.91L591.65 526.31L589.45 528.11L585.75 527.31L582.95 529.11L581.15 528.71L579.35 525.61L578.15 525.71L578.95 527.41L580.45 529.41L579.85 531.21L576.95 535.31L575.25 536.21L574.65 535.01L575.55 534.31L578.25 531.11L577.85 529.91L576.35 529.01L575.85 530.71L571.75 535.11L569.25 535.51L568.75 537.21H565.85L563.85 535.81L562.15 537.31L559.25 536.81L558.75 538.01L560.55 539.11L564.95 538.91L566.65 540.81L568.45 542.11L569.95 541.31L570.85 542.61L569.45 544.41L569.55 545.61L570.85 544.81H572.05L571.65 547.01L573.35 545.31L574.75 546.21L575.45 549.41L576.95 551.11L580.05 552.01L581.45 551.31L576.85 546.91L572.05 541.01L570.75 537.51L571.95 536.81L573.95 539.71L575.05 543.41L581.75 550.61L583.25 551.31L585.45 548.81H586.95L589.65 550.51L590.55 547.71L594.95 547.11L598.65 547.31L597.55 549.11L596.25 550.31L597.55 552.81L595.75 554.81L591.15 555.21L585.75 554.31L582.55 556.11L580.05 559.51L575.65 559.41L569.25 564.11L564.55 566.31L559.45 566.11L557.05 564.21L557.75 563.11L559.45 558.11L559.35 556.11L554.85 552.71L553.35 552.91L550.45 551.51L548.55 553.01L546.05 551.91L548.85 547.71L553.85 544.81L557.85 544.11L559.05 543.41L557.55 541.51L556.85 538.11L555.55 537.51L554.65 539.41L552.45 538.21L549.35 536.81L546.05 537.41L543.15 538.91L540.65 537.51L538.65 537.31L536.65 535.51L538.15 534.61L538.75 533.71L534.75 532.31H529.65L528.45 530.61H531.55L536.35 529.91L538.85 530.71L540.65 529.81L543.55 528.01L539.35 529.11L537.25 528.41L535.55 527.11L534.65 525.61L533.55 527.51L532.35 529.01H529.85L529.95 528.31L528.25 526.91L525.55 530.31L522.35 530.41L520.35 532.11V535.51L517.55 539.21H516.15L516.95 541.01L511.75 547.31H509.95L508.75 545.51L508.65 547.41L508.45 549.21L509.75 550.91L509.25 553.31L506.85 551.41L502.65 551.81L500.45 553.51H495.35L491.55 552.71L489.35 548.81L491.35 547.41L493.55 548.11L493.65 545.61L496.25 540.81L497.55 541.01V537.61L497.95 532.61L500.65 532.51L504.15 531.31L506.25 533.11H510.35L510.85 531.61L509.15 529.21L509.75 526.81L509.25 524.31L505.25 521.91L501.85 518.81L501.35 517.41L498.25 515.71L498.65 512.41L497.75 507.61L494.35 505.81L490.15 501.61H488.85L488.15 503.11L483.65 502.61L479.45 498.71H475.75L473.85 495.51L472.65 496.71H469.75L468.95 498.01L466.25 496.51L465.65 497.41L463.45 496.51L464.05 500.21L463.55 501.91L464.05 505.21L460.95 505.81L457.75 507.81L448.45 509.31L446.25 512.01L443.45 512.21L439.05 513.61L436.15 512.21L434.85 510.01L431.15 508.31L427.25 508.21L422.25 505.41H419.65L417.75 507.11L415.05 507.21L414.15 504.71L410.75 502.51L407.45 499.31L408.05 498.91L408.65 494.31L411.45 488.31L414.15 488.41L414.25 484.31L413.65 480.51L422.15 471.11L423.35 466.91L425.35 464.81L427.75 464.71L428.45 460.61L427.55 458.91L427.05 456.81L428.35 455.31L424.95 453.21L423.45 449.21L421.65 447.41L421.55 441.01L421.45 437.71Z" fill="#D3E8EF" stroke="#74A2C1"/>
<path  id="NORWAY" fill-rule="evenodd" clip-rule="evenodd" d="M441.85 59.01L443.55 58.81L443.65 54.01L447.35 50.51L450.65 50.01L452.75 47.21L452.55 43.31L454.75 43.11L457.55 44.31L459.25 42.21L459.15 39.41L458.35 39.31L456.35 37.81H455.25L454.35 38.41L454.25 40.11L453.05 39.01L452.35 37.51H450.85L451.25 39.01L450.85 41.81L449.95 41.21L448.75 39.31L446.85 40.41L446.15 41.91L445.45 39.81L444.75 36.91L443.65 36.81L442.55 33.91L441.45 33.31L439.25 33.71L437.25 32.91L434.05 32.51L432.35 30.41L432.95 29.91L436.95 31.01L440.25 30.51L443.05 31.11L448.45 31.81L452.25 30.51L454.75 25.71L459.95 24.41L462.15 22.51V21.71L460.45 21.11L459.95 20.01L458.05 19.41L455.65 19.81L452.25 17.01H450.45L448.25 19.51H446.85L446.45 18.61L448.55 17.21L448.95 15.31L446.35 14.21L445.85 13.51L443.95 13.61L442.15 16.71H441.25L441.45 14.51L440.25 14.71L439.05 16.41L437.85 16.31L437.35 14.91L439.15 13.61V11.11L436.55 9.41H433.95L432.25 10.31L431.85 14.11L430.05 14.91L429.85 16.21L431.35 20.11L431.15 21.91L429.75 23.21L428.55 20.81L426.85 20.71L426.45 21.61L424.25 21.11L420.95 22.61L423.55 18.91L425.55 18.41L426.85 15.81L426.45 14.51L425.55 14.61L422.85 16.61L421.35 16.11L421.75 14.91L423.55 13.51L423.65 12.31L421.25 11.71L420.75 10.61L422.75 10.01L423.55 10.81H426.45L428.15 6.61L427.45 4.71L424.75 5.41L423.55 4.61L424.05 2.61L423.35 0.809998L421.55 2.21L420.15 2.11L418.45 0.809998L416.45 2.71L416.55 4.01L418.25 6.01L417.05 7.51H415.85L413.95 4.81L412.55 6.11L411.85 8.51L412.45 9.41H414.55L415.45 10.31L415.25 11.51L413.55 12.21V14.11L411.85 14.91V17.11L412.35 17.91L410.85 18.81L411.75 21.51L410.95 22.41L409.15 21.11L407.45 22.41L407.25 23.51L405.45 24.81L405.35 22.21L407.55 17.41L405.45 16.61L405.65 15.31L407.15 13.81V9.71L406.25 8.31H404.95L401.55 14.01L401.45 17.21L397.95 21.91L397.25 25.41L397.95 26.81L397.55 29.51L394.05 33.41L392.25 34.21V31.81L391.35 30.01L393.75 26.31L393.25 23.91L394.15 22.11L393.05 19.71L397.05 15.31L397.75 12.71L398.35 12.21L398.15 10.71L396.05 10.51L393.95 8.31L392.85 8.71L393.25 11.21L391.75 13.01L391.65 10.61L389.65 8.81L387.45 8.31L385.75 9.21L386.15 12.51L385.35 14.21L384.15 12.81L382.65 11.91L381.45 13.11L381.85 14.21L384.95 16.31L385.65 18.71L384.95 19.51L383.65 18.11L382.15 19.51L382.05 20.91L382.75 22.01L381.95 22.91L379.45 21.21L378.15 21.31L376.75 24.11L374.95 24.91V26.01L376.05 26.81L373.45 28.51L372.85 30.51L374.95 32.61L373.45 34.11L375.55 35.01L376.45 35.91L375.25 37.11L371.85 36.71L370.95 33.21L369.25 32.71L370.75 31.01L368.65 29.81L366.25 30.01L363.35 29.81L359.15 26.51H357.85L356.45 28.31L355.55 26.51L353.45 28.41L350.95 29.01L350.85 30.21L353.75 33.71H355.85L357.05 35.11L360.15 35.31L358.85 37.91L358.95 40.31L361.05 43.11L360.65 44.91L358.85 43.51L357.05 40.41L354.65 39.51L353.25 37.81L352.55 40.21L350.45 41.91L349.95 38.61L347.95 40.31V41.71L345.55 43.81L345.65 45.91L348.45 47.21L349.65 49.81L347.45 49.41L346.25 48.21L344.35 50.91L343.75 53.01L340.85 55.41V53.91L342.85 52.51L342.15 50.61L343.95 46.81L342.45 39.01L340.45 40.21L337.35 45.31V48.61L337.85 49.91L335.75 52.61L335.55 50.01L336.85 47.21L335.75 43.41L334.35 43.01L331.75 44.81L329.85 48.21L331.05 50.81L330.95 53.21L334.75 55.91L335.85 57.81L334.35 60.71L333.15 57.01L330.45 55.81L328.65 51.01L327.85 50.51L324.35 51.71L323.85 53.41L327.35 56.11L329.05 56.31L329.95 57.41L327.55 57.01L325.15 57.81L326.65 60.41L324.15 58.51L323.75 55.31L322.65 54.71L322.05 52.61L320.55 53.81L319.95 57.21L321.25 58.71L320.75 61.81L318.55 60.61L316.65 61.21L314.05 64.31L314.65 64.71L316.45 64.51L318.25 66.61L316.05 66.81L314.35 67.91L315.85 69.01L314.75 70.31L312.75 70.41V71.61L313.45 72.21L311.75 72.61L310.55 71.21L308.55 71.71L306.75 73.91L307.45 75.21L306.65 76.01L303.95 76.21L302.55 78.81L304.75 79.51L310.75 77.81L312.15 78.71L314.65 77.41H316.45V79.21L314.65 81.21L314.15 84.91L313.55 85.71L312.45 84.41L312.05 82.51L309.85 83.11L308.95 81.91H306.25L307.15 82.81L306.35 84.31L304.35 83.11L302.85 83.21L304.85 84.71L305.65 86.81H304.45L303.65 88.31L304.15 90.31L303.65 91.71L302.45 89.81V87.31L300.65 84.81L298.75 86.81L296.85 87.31L295.95 85.81L296.65 84.61L295.15 84.41L292.95 86.81L294.85 88.81L297.75 88.71L300.15 90.11L298.85 92.21L293.85 92.91L292.75 92.01L290.75 92.11L289.65 94.61L291.35 96.11L289.65 98.31L291.65 97.91L294.15 95.01L296.35 95.11L297.55 96.91L293.85 97.41L293.25 100.11L294.55 102.11L297.45 103.91L297.35 106.01L295.35 104.51L293.65 104.71L291.45 102.01L290.15 102.21L288.35 104.11L290.25 105.51L287.75 105.71L285.35 107.51V109.21L287.95 110.41L290.15 109.01L291.55 110.41L293.75 109.71L294.45 111.91L296.15 112.81V114.31L292.65 112.11H289.85L288.55 112.91L284.65 113.51V115.61L282.45 116.81L281.55 116.01L278.25 117.81L276.35 117.91L275.95 119.21L278.05 120.11L279.55 122.01L277.65 122.71L276.55 122.21L275.85 122.81L277.55 124.31L276.95 125.41L274.45 124.91L274.05 124.21L273.25 125.01L275.05 126.41L273.85 127.31L274.25 128.81H275.65L274.25 129.71L272.55 130.11L271.65 129.21V130.71L270.85 132.11L272.25 132.71L275.95 134.01L276.45 135.71L277.85 136.21L279.95 135.31L278.25 136.81V138.11H275.85L274.75 137.01L270.95 137.11L268.35 139.51L269.15 140.31L271.85 140.41L272.05 142.21L273.35 143.51L273.25 145.61L271.75 143.91H270.45L269.15 145.41L269.25 147.21L268.55 147.71L269.85 149.11L270.25 150.91H269.05L267.65 149.61L266.75 150.31L266.85 152.51L269.25 153.11L269.75 154.31L269.55 155.71L266.45 153.71L265.15 154.41L265.05 156.61L265.85 156.81L265.75 159.21L266.85 161.41L268.35 161.31L269.55 159.21H270.85L269.65 162.31L267.95 162.71L265.75 165.21H263.75L262.05 165.91L261.95 167.21L259.75 168.11L257.95 169.61L259.85 170.51L259.25 171.71L255.85 172.11L254.35 174.31L254.55 175.41L257.25 176.21L255.15 177.31L254.05 179.51L251.95 179.61L251.45 177.51L250.15 176.71L249.35 178.01H247.55L248.15 179.51L246.85 180.71L246.45 182.21L247.15 183.51H243.95L242.65 184.21L242.85 187.01L240.45 188.51L240.85 189.41L240.35 192.21L238.55 193.61L236.15 196.01L236.85 197.11L239.55 195.31L240.95 195.41L240.75 196.91L238.95 197.61L238.75 200.31L240.25 202.41L243.15 200.71L246.35 200.21L250.45 196.21V194.31L248.25 194.91L250.15 192.41L250.65 189.51L251.55 189.31L252.85 188.11L255.25 188.61L256.65 188.51L252.75 191.01L252.65 192.81L256.45 194.01L255.15 195.71L253.15 195.91L249.25 199.91L251.65 201.21L250.35 202.91L250.45 205.41L248.05 205.21L246.05 203.21H243.95L242.25 204.51L242.15 206.71L239.95 208.01L237.85 209.21L239.35 207.41L240.55 206.61L238.85 204.41V202.01L236.95 199.31H235.05L233.95 201.21L231.35 201.61V202.91H234.65L231.25 206.01L229.05 204.91L227.05 205.31L224.45 207.71L225.85 208.11L227.15 207.51L227.85 208.21L225.05 210.01L223.75 211.51L222.45 210.21H220.55L220.15 211.51L223.25 213.31H226.75L226.05 215.21L227.55 215.81L227.45 217.51L224.35 216.61L223.85 214.71H221.45L219.05 212.61L218.45 210.91L217.55 211.01L217.05 213.11L219.45 216.31L221.95 218.21L224.15 218.61L225.35 219.91L223.15 220.01L219.25 218.61L215.75 214.61L214.05 215.71L211.85 214.01H209.65L208.35 212.81L207.25 214.11L207.75 216.21L206.35 217.51L208.45 219.71L212.95 218.41L213.65 219.31L211.65 220.61L212.75 221.21L216.15 219.51H217.65L216.85 220.91L212.85 222.61L211.35 224.81L208.65 224.11L206.25 221.01H205.05L203.75 222.21L201.75 220.41L200.05 221.51L198.85 220.81L196.75 222.11L197.35 223.21L201.55 223.81L204.25 225.61L207.55 227.41L206.65 229.61L207.85 231.41L205.85 232.51L205.05 231.41L204.95 227.91L202.55 227.11L200.05 227.61L200.95 229.41L200.45 230.71L197.35 228.81L194.75 231.51L197.35 233.31L195.25 233.51L193.85 234.11L193.15 231.51L189.15 231.41L190.45 234.01L188.75 235.21L188.05 232.71L185.85 230.61L184.55 231.11L184.95 232.51L187.55 234.91L186.45 236.41L187.65 237.61L190.75 236.71L194.75 237.51L197.35 239.21H201.35L202.65 238.31H204.65L201.95 240.91L198.45 240.41L197.15 241.11L192.95 238.91L190.25 239.61L188.95 239.11L186.85 240.91L183.95 241.41L183.75 242.61L188.25 244.61L186.55 246.51L188.75 247.01L190.15 246.11H193.85L191.15 248.01H187.35L186.25 248.51L185.05 248.11L184.95 248.91L186.95 249.71H188.35L186.15 251.01L184.95 251.41L185.35 252.71L186.65 253.61L187.55 255.11L190.65 255.01L192.35 253.81L196.45 253.21L199.25 253.91L200.35 254.61L202.25 253.31V251.51L204.15 251.01L204.85 252.51H207.05L209.95 250.41L211.25 250.81L210.65 252.01L209.25 253.11L211.85 253.81L213.05 252.51L212.55 251.01L214.55 248.11L213.95 250.31L216.05 252.81L214.35 254.91L210.65 255.71L208.85 257.01L209.75 257.81L208.55 259.91L205.45 260.01L205.35 258.71L206.85 257.41L206.45 254.91L203.85 254.51L201.05 257.21L200.55 258.61L198.65 256.11L196.25 255.61L193.35 256.11L191.55 255.61L188.15 257.31H186.45L184.45 256.01L183.75 256.21L184.85 258.81L184.15 260.11L185.45 261.21L187.45 260.71L188.55 259.41H190.05L188.25 261.31L188.45 263.51L187.35 264.41L185.45 263.31L186.35 266.41L187.85 267.71L191.75 263.51L194.45 264.71L193.25 265.91L193.65 268.11L190.45 269.91L190.95 270.81L192.95 271.21L191.85 272.91L193.25 275.11L192.35 277.71L193.15 277.81L195.25 274.61L197.15 273.51L197.65 270.81L202.65 268.71L205.15 268.91L207.25 268.31L205.85 269.21L203.25 271.21V274.41L204.05 276.41L202.05 274.71L201.65 271.81L200.25 271.71L198.45 274.91L196.95 275.41L199.45 276.31L197.25 279.21H195.45L194.65 281.11L195.95 281.71H199.75L200.65 283.21L197.95 283.41L197.05 284.91L196.85 286.81L193.95 284.81L192.65 285.41L192.15 287.61L191.55 284.91L189.75 286.11L187.35 289.31L188.25 291.81L191.95 295.71L192.65 293.51L193.55 294.31L195.55 293.41L195.05 292.21L196.25 289.61L199.15 291.81L197.85 292.61L199.55 294.41L198.95 296.61L197.15 297.91L198.65 301.81L199.95 300.41L203.25 299.51L204.55 301.41L201.75 301.61L200.45 302.71L201.85 304.91L201.45 305.81L196.65 302.31L194.95 302.91L193.45 301.71L191.35 301.81V303.91L189.95 305.41L193.35 311.21L196.15 311.81L199.95 315.01L205.15 317.01L205.75 318.71L204.45 319.31L206.35 321.21L208.15 320.31L207.35 317.71H209.05L210.85 319.11L210.45 319.91L213.15 323.31L214.45 321.81L215.55 322.41L217.95 321.31L220.75 318.61L221.95 318.41L223.15 317.11L223.75 317.21L224.45 319.21L226.15 319.31L230.85 314.61L230.65 312.91L228.55 310.31L232.25 312.51L235.05 309.61L234.25 308.71L236.05 307.51L235.65 305.61L237.75 304.21L239.95 303.71L240.55 302.01L238.35 299.31L239.15 297.51L237.25 294.91L234.85 293.11L234.95 290.91L236.25 291.71L238.85 294.61L239.95 298.41L240.85 299.51L242.55 299.71L242.15 301.21L243.35 302.91L245.95 301.71L245.25 300.31L244.05 299.41L244.95 297.61L247.15 299.61L247.25 300.51L250.65 297.31L251.55 294.41L250.75 291.81L248.95 291.01L248.05 289.51L249.35 288.71L249.55 287.51L250.85 287.41L251.95 286.21L250.55 284.51L250.65 282.01L252.75 280.51L254.65 282.41L253.15 284.91L253.65 288.21L253.05 290.41L254.55 292.91L255.05 294.71L257.85 297.61L261.15 297.21L262.45 298.41L261.65 299.51L263.35 300.71L264.85 303.51L266.35 300.71L265.75 292.21L263.65 288.51L264.75 286.11L266.65 285.21L265.25 282.41L266.15 280.71L270.35 280.31L271.55 278.21L271.35 275.41L273.35 271.21L271.35 268.41L270.45 262.11L267.85 257.01L268.05 254.81L274.35 252.71L274.45 248.21L275.75 245.11L271.05 239.91L267.05 237.91L266.85 232.71L267.75 227.61L267.05 222.11L265.55 218.31L266.75 214.11L265.95 206.91L264.65 199.81L265.55 193.71L268.65 188.31L271.55 186.51L275.25 187.31L279.95 187.51L282.35 184.21L281.95 179.01L280.65 176.91L280.85 173.51L285.45 162.11L285.65 155.51L287.05 149.21L288.45 145.71L288.35 141.71L286.35 139.71L286.45 136.91L290.85 134.31L295.55 133.41L297.65 131.51L297.85 128.71L301.65 122.11L305.55 116.71L306.85 113.51L305.35 109.51L303.85 107.71L303.75 101.31L305.55 100.41L307.25 98.21L308.05 94.81L309.95 93.91L312.05 89.31L314.85 87.11L317.95 88.51L319.25 90.01L321.05 89.61L323.15 87.71L321.45 84.91L323.15 83.41V81.91L323.85 80.41L321.65 77.01L323.05 76.11L327.05 76.21L329.95 74.71L334.55 75.91L337.35 77.81L340.55 78.21L342.35 79.71L343.75 79.21L345.05 80.01V76.31L343.55 74.21L343.95 70.01L346.15 68.81L345.45 66.01L343.25 64.81L343.05 62.01L346.25 62.91L349.35 62.31L350.45 61.81L351.05 61.01L352.25 61.61L353.15 61.01L352.35 58.91L352.85 56.51L354.75 55.01L357.35 55.41L359.45 58.51L365.35 63.21L366.45 66.01L368.55 69.11L372.45 70.61L378.95 70.81L382.35 67.51L384.25 65.51L387.05 65.61L391.65 68.81L394.75 69.31L396.25 66.41L398.05 65.51L400.15 63.41L402.55 63.61L404.95 62.11L405.85 60.31L404.95 57.91L403.65 53.81L404.35 46.71L405.25 44.61L403.95 42.51L405.45 41.61L407.55 38.71L407.35 37.21L410.15 35.91L413.65 36.61L415.75 36.11L415.55 34.91L417.75 32.41L423.65 32.31L426.25 34.11L429.55 38.31L431.45 40.31L434.35 41.41L438.95 41.91L439.75 44.11L442.45 47.01L441.95 49.81L439.55 53.61L441.85 59.01ZM194.25 297.81L196.05 299.61L193.95 300.31L194.25 297.81ZM187.95 282.51C187.85 282.41 189.45 282.01 189.45 282.01L190.95 283.71L190.05 285.71L187.95 282.51ZM192.65 277.21L192.55 279.41L191.45 279.61L192.65 277.21ZM190.35 275.91L189.95 278.31L187.85 277.91L190.35 275.91ZM185.55 265.51L183.45 264.11L185.45 262.41C185.45 262.31 185.45 265.01 185.55 265.51ZM184.65 267.51L186.65 267.61L185.75 268.81L184.65 267.51ZM189.65 270.11C189.75 270.21 191.75 272.81 191.75 272.81L190.85 275.41L189.65 270.11ZM185.95 273.51L184.15 271.31L186.75 270.51L185.95 273.51ZM184.05 257.61L181.85 259.41L183.25 260.31L184.65 258.91L184.05 257.61ZM183.15 238.41L186.35 239.91L183.75 240.41L183.15 238.41ZM184.05 233.71L186.65 235.41L185.35 237.11L184.05 233.71ZM191.75 228.11L192.55 230.31L189.95 230.41L191.75 228.11ZM194.25 226.41L196.25 227.01L197.15 228.71L194.35 230.41L194.25 226.41ZM218.75 209.31L221.25 206.61L221.95 209.51L220.55 210.81L218.75 209.31ZM219.55 204.81L218.45 206.01L215.85 203.11L218.65 202.91L219.55 204.81ZM222.15 199.01L226.35 195.21L228.25 196.91L225.45 198.81L222.15 199.01ZM222.85 204.21L224.55 201.01L227.25 200.91L228.05 199.51L230.15 199.41L231.55 200.91L229.55 203.41L226.45 203.21L224.55 204.31H222.85V204.21ZM258.65 165.21L259.75 163.21L263.15 162.51L260.35 165.91L258.65 165.21ZM255.65 171.81L254.75 170.11L252.25 170.31L254.35 168.11L258.15 167.61L260.15 166.81L257.05 170.71L255.65 171.81ZM262.35 148.51L263.45 149.21L263.55 150.91L262.15 152.21L260.85 150.51L262.35 148.51ZM267.55 143.31L268.75 142.01L271.25 142.41L267.95 145.01L267.55 143.31ZM265.65 138.51L268.25 135.81L268.85 138.41L266.65 141.91L265.65 138.51ZM282.75 113.61L283.65 112.31L285.15 112.51L284.05 114.71L282.75 113.61ZM266.25 99.51L267.45 100.91L266.75 102.31L265.35 101.41L266.25 99.51ZM270.85 92.51L267.65 95.61V92.91L270.15 88.71L270.85 92.51ZM272.85 90.51L271.75 89.01L272.85 87.61L274.05 88.31L272.85 90.51ZM280.75 84.41L280.55 86.61L275.55 90.41L276.35 85.61L280.75 84.41ZM285.25 78.51L286.75 76.01L289.15 78.01L285.25 78.51ZM288.75 79.41L288.65 84.81L285.85 83.41L282.15 85.81L282.55 83.11L288.75 79.41ZM290.55 66.01L291.45 69.71L291.55 74.31L287.85 75.41L286.45 74.01L289.85 71.61L287.95 71.51L284.45 74.31L283.35 72.51L284.25 69.81L286.85 70.41L289.25 67.71L288.75 66.41L290.55 66.01ZM293.65 67.61L292.25 66.71L292.45 62.71L296.15 59.81L296.25 57.31L299.75 55.91L300.45 58.51L297.65 60.61L297.45 63.41L293.65 67.61ZM302.55 69.11L306.05 72.51L301.35 77.71L298.15 79.51L297.05 81.61L294.95 80.91L295.15 78.21L292.05 82.61H290.55L291.05 79.21L292.45 78.41L292.05 75.91L293.95 73.71V71.11L297.25 66.01L295.55 73.21L296.25 75.81L298.15 72.31L302.55 72.11L300.85 69.71L300.75 67.71L302.55 69.11ZM302.25 66.21L301.45 65.41L303.45 64.61L306.25 66.01V67.91L302.25 66.21ZM309.75 70.21L310.65 66.91L312.15 69.11L309.75 70.21ZM319.15 55.31L318.65 56.81L319.25 59.01L316.35 59.71L315.25 61.21L312.05 61.01L311.35 64.41H310.05L309.95 61.81L307.75 61.61L309.95 58.71L307.25 58.51L308.45 55.31L311.95 55.11L308.75 53.41L310.55 50.51L312.65 52.01L312.05 49.11L316.15 49.61L316.65 51.81L318.55 52.41L319.15 55.31ZM319.15 47.31L322.95 47.21L323.05 45.11L326.35 45.01L327.85 42.91L329.65 45.61L327.75 48.01L327.85 50.01L324.55 50.11L321.95 51.01L319.15 47.31ZM330.35 32.01L329.65 30.11L332.05 29.31L330.35 32.01ZM325.35 37.41L325.55 34.21L329.05 33.31L328.85 35.21C328.75 35.11 325.55 37.41 325.35 37.41ZM334.55 42.41L335.35 38.71L336.55 41.31L334.55 42.41ZM333.15 41.51L332.35 42.71H330.45L327.05 39.21L331.25 35.71L332.15 37.21L334.55 36.81L334.95 37.61L332.75 39.11L333.15 41.51ZM340.45 35.11L339.25 36.01L336.15 34.71L336.05 32.21L335.15 28.51L336.65 27.41L337.25 31.21L339.85 33.21L340.45 35.11ZM348.05 39.21L346.55 36.81L344.55 36.11L344.35 31.51L346.25 29.71L348.95 31.81L347.75 34.51L349.45 36.61L348.05 39.21ZM368.65 28.71L365.95 27.51L363.05 26.01L365.05 24.51L367.95 24.71L369.25 26.11L368.65 28.71ZM372.15 26.41L369.05 22.61L373.85 18.41L374.65 21.51L372.45 24.11L372.15 26.41ZM366.25 21.41L364.35 21.81L359.95 20.51L358.85 17.61L361.35 18.21L363.75 16.41L365.25 18.31L366.65 15.61L368.45 16.51L372.85 12.51L373.45 14.31L366.25 21.41ZM374.75 15.71L378.55 14.31L381.75 16.71L380.85 19.11L377.05 20.51L376.85 17.91L374.75 15.71ZM382.35 9.11L381.55 10.41L380.35 10.81L378.55 8.11L380.95 7.51L382.35 9.11ZM388.25 4.91H386.35L387.25 3.01H389.15L388.25 4.91ZM392.05 6.31L392.15 5.01L393.35 3.81L395.05 4.61L396.35 3.41L396.55 1.31L398.05 2.61L400.25 3.21L398.45 5.41H401.75L400.55 8.51L397.75 9.11L394.85 6.91L392.05 6.31Z" fill="#D3E8EF" stroke="#74A2C1"/>
<path  id="REPCZ" fill-rule="evenodd" clip-rule="evenodd" d="M313.15 454.91L314.05 457.01L315.25 455.61L317.65 456.11L319.05 455.41L324.55 456.31L324.45 457.81L326.85 460.31L329.05 459.91L331.05 461.71L329.75 464.81L330.85 466.51L331.75 467.01L331.65 469.71L333.55 470.41L334.85 469.11H336.65L333.45 464.91L334.75 464.11L341.25 467.61L345.35 467.11L344.65 469.51L347.55 471.91L352.75 470.71L356.75 472.01L365.15 478.01L367.75 482.51L370.15 482.61L371.35 481.21L375.05 481.31L377.15 483.51L377.85 487.21L371.55 486.61L368.65 489.21L365.15 489.61L361.25 493.51L356.15 494.21L350.95 496.01L349.65 494.91L346.45 495.01L343.15 497.21L337.15 495.81L334.75 494.01L330.95 494.71L327.15 494.61L323.75 492.21L318.65 492.01L315.95 490.91L314.75 493.41L313.45 494.71L313.25 496.81L309.45 497.01L308.15 498.41L301.15 494.51L299.25 494.31V494.21L293.75 487.81L291.05 486.01L286.35 482.71L283.75 481.31L282.95 479.31L283.15 475.91L280.25 471.41L276.75 469.31L276.65 467.21L277.85 466.41L279.15 467.51L281.35 468.61L286.15 464.11L288.55 464.01L291.25 460.91L294.15 460.81L295.65 458.61L300.25 458.51L302.25 459.01L304.45 457.61V455.11L308.65 456.21L310.45 454.91L312.45 456.01L313.15 454.91Z" fill="#D3E8EF" stroke="#74A2C1"/>
<path  id="CYPRUS" fill-rule="evenodd" clip-rule="evenodd" d="M563.65 731.21L560.45 729.31L558.65 726.71V723.61L560.15 723.21L561.85 721.21L564.55 722.41L566.45 721.71L567.25 719.91L567.35 718.11H569.95L572.75 719.51L576.25 719.31L582.35 716.91L586.75 714.21H588.25L589.05 714.91L587.55 716.11L584.35 718.01L581.25 721.71L582.35 724.21L582.25 726.71L578.55 726.31L576.45 727.41L573.65 730.01L570.45 730.71L568.75 732.01L567.25 731.11L563.65 731.21Z" fill="#D3E8EF" stroke="#74A2C1"/>
<path  id="AUSTRIA" fill-rule="evenodd" clip-rule="evenodd" d="M303.95 534.81L306.15 535.01L312.25 534.91L314.05 537.11L317.35 535.81H320.25L323.45 534.31L325.45 534.11L326.85 534.21L332.85 530.91L336.75 529.61L338.95 526.91L337.45 524.31L337.85 521.71L339.05 518.51L336.45 515.71L337.15 514.51L343.05 514.61L343.55 511.81L343.15 509.11L342.05 501.41L342.25 496.91L336.95 495.71L334.55 493.91L330.75 494.61L326.95 494.51L323.55 492.11L318.45 491.91L315.75 490.81L314.55 493.31L313.25 494.61L313.05 496.71L309.25 496.91L307.95 498.31L300.95 494.41L299.05 494.21L298.55 496.71L298.65 499.41H296.45L294.95 502.11L291.75 503.81L288.05 508.41V510.21L291.35 512.01L291.85 514.61L290.45 515.51L287.35 513.71L284.25 514.51L281.05 513.71L278.85 513.91L274.45 516.81L272.05 517.31L269.95 516.61L267.45 517.21L265.55 515.91L261.75 515.31L258.05 515.81L258.25 517.71L257.45 518.91L253.95 518.01L252.05 515.91L249.55 516.81L248.05 517.61H247.35L249.05 518.81L248.95 520.71L250.45 522.01L250.35 524.51L252.55 524.61L254.25 524.01L257.05 526.71L259.45 524.61H261.65L262.75 526.81L262.85 526.71L267.45 528.71L274.55 524.61L277.65 525.31L282.35 524.91L281.95 527.71L288.65 531.61L297.05 533.31L301.55 532.81L303.95 534.81Z" fill="#D3E8EF" stroke="#74A2C1"/>
<path  id="BEL" fill-rule="evenodd" clip-rule="evenodd" d="M200.55 471.01L202.25 467.21L200.45 464.71L200.55 462.91L198.55 458.71L199.35 456.71L196.75 455.91L196.85 454.11L195.55 451.91L191.85 452.11L190.55 450.21H188.15L186.45 448.51L181.85 448.41L181.05 450.41L179.05 450.61L178.45 451.51L175.85 452.01L174.45 453.41L173.05 452.01H170.95L169.75 450.01L168.05 449.31L165.25 451.41L163.45 454.81L164.95 456.01L165.55 460.81L168.75 462.01L169.25 464.21L173.15 467.41L174.85 467.31L176.65 468.71L178.55 469.51L178.65 473.31L181.55 474.81L182.95 473.91H184.65L185.95 475.21L187.75 475.71L190.95 479.61L193.65 479.81L196.15 481.61L197.35 480.81H199.35V479.41L198.25 478.31V476.41L197.35 475.21L198.85 473.31L199.65 470.81H200.55V471.01Z" fill="#D3E8EF" stroke="#74A2C1"/>
<path  id="BULGARIA" fill-rule="evenodd" clip-rule="evenodd" d="M419.35 572.41L423.15 572.61L424.95 574.11L424.75 576.21L423.85 577.61L425.35 580.11L428.65 578.01L432.35 578.21L433.85 579.71L435.25 579.31L439.95 581.11L443.95 579.21L446.55 580.01L448.95 578.91L451.65 580.01H454.15L459.25 580.61L461.05 579.41L464.45 578.21L465.65 576.21L473.75 572.41L477.25 571.81L481.45 572.31L486.05 574.21L487.45 575.71L490.05 574.61L493.55 576.41L494.25 577.71L497.45 577.91L497.65 578.51L497.05 583.71L495.25 585.51L492.75 585.11L488.95 588.41L489.65 594.41L488.75 597.11L484.85 600.01L485.35 601.41L487.75 601.81L490.45 605.81L492.55 609.11V609.21L489.45 608.51L487.45 610.01L483.65 607.11H479.65L478.15 608.91L475.95 609.11L473.85 611.51L473.75 611.71H472.05L468.85 614.21L468.65 617.31L469.75 619.81L467.95 621.21L462.05 620.81L459.45 622.11L457.05 620.71H454.35L452.45 622.21L449.85 622.01L449.45 619.81L445.75 619.91L442.45 619.31L439.95 621.51L436.55 622.31H431.95L430.65 621.61H430.55L429.95 618.91L429.45 615.61L425.75 609.21L420.25 604.81H420.45L421.25 602.31L419.45 599.51L419.25 597.31L424.05 592.81L424.95 590.01L423.05 586.51L419.05 582.41L417.65 576.91L419.85 574.81L419.35 572.41Z" fill="#D3E8EF" stroke="#74A2C1"/>
<path  id="CROATIA" fill-rule="evenodd" clip-rule="evenodd" d="M372.45 561.81L372.05 559.61L374.75 558.71H376.05V557.61L373.45 557.01L372.05 555.81L371.25 552.31L369.55 548.21L367.75 547.11L365.65 549.91L360.55 548.11L353.35 546.91L351.15 545.21L348.35 544.11L342.85 538.81L340.35 538.31L340.45 538.91H334.45L326.05 543.31L325.45 546.81L321.05 549.01L320.25 553.71L317.45 553.91L312.25 551.51L309.45 552.31L305.95 554.91L301.15 555.11V555.51L301.95 560.91L305.05 563.81L304.65 564.91L305.95 566.01L309.25 560.61L309.75 557.71L311.85 555.31L315.15 555.21L315.85 557.91L318.55 560.11L319.35 564.11L321.35 568.01L325.45 571.91L326.55 572.11L328.95 574.71L326.85 574.01L324.45 574.41L323.35 576.61L324.65 579.01H327.75L330.65 581.91L333.75 583.01L334.85 585.41L336.25 587.11L339.35 586.51L345.35 587.01L348.65 588.71L355.25 595.51L353.35 595.71L350.15 594.01L351.85 596.11L354.65 596.71L355.75 594.31L345.95 583.61L334.85 573.91L334.45 572.41L335.35 571.51L333.55 569.31L333.05 567.11L330.25 563.91L328.45 564.01L328.35 562.01L329.45 560.91V557.41L330.55 556.11L333.85 558.61L334.95 560.51L336.75 560.11L336.85 558.21L339.35 557.81L341.05 557.91L342.45 556.41L344.55 557.71L345.75 556.61L347.95 557.11L349.15 559.31L350.95 558.01L354.05 559.11L356.25 558.21L356.95 559.11L360.35 558.71L363.15 559.81L364.95 559.61L367.75 561.81L371.65 561.91L372.45 561.81ZM343.75 594.51C343.95 594.41 348.45 594.41 348.45 594.41L350.25 596.11L346.15 595.71L343.75 594.51ZM340.55 591.51L347.65 591.61L344.85 593.01L340.55 591.51ZM340.65 588.31H346.05L347.25 589.11L344.55 590.41L341.85 590.01L340.65 588.31ZM321.05 570.81L322.55 571.21L324.35 573.61L323.45 574.31L321.05 570.81ZM318.85 567.11L321.35 569.71L318.75 569.01L318.85 567.11ZM319.45 575.51L322.25 577.71L322.95 580.11L319.45 575.51ZM315.95 570.91L318.05 571.81L318.25 573.81L315.95 570.91ZM311.05 563.41L314.55 565.91L315.75 569.41L314.65 569.61L312.25 567.01L312.85 566.21L311.05 563.41ZM313.35 557.91L317.35 563.81L315.35 564.61L314.25 563.21L312.25 562.71L312.05 558.81C312.35 558.51 312.85 558.11 313.35 557.91Z" fill="#D3E8EF" stroke="#74A2C1"/>
<path  id="FRANCE" fill-rule="evenodd" clip-rule="evenodd" d="M216.85 546.01L216.35 543.61L214.65 542.31L213.75 538.91L212.35 536.31L208.25 536.11L206.35 537.81L207.65 541.21L204.25 542.61L201.35 542.41L201.15 540.21L202.85 539.41L204.55 539.51V536.81L205.15 532.71L208.65 527.01L210.75 526.21L213.45 522.71L215.95 521.61L215.45 519.01L212.65 517.51L214.45 515.31L217.65 515.11L218.45 516.91L220.95 517.11L225.45 515.71L224.15 513.01L221.75 511.51L221.55 507.51L222.95 502.81L224.85 501.01V498.91L226.35 494.81L229.45 491.61L226.75 489.81H224.15L220.85 488.31L218.35 489.11L216.55 488.41H214.15L211.95 489.21L209.55 487.21V485.11L206.95 483.11L204.95 483.61L201.45 482.91L199.95 480.31H197.75L196.55 481.11L194.05 479.31L191.25 479.11L188.05 475.11L186.25 474.71L185.05 473.31H183.35L181.85 474.41L178.95 472.91L178.75 469.11L176.85 468.21L175.15 466.81L173.45 466.91L169.55 463.71L169.05 461.51L165.85 460.31L165.25 455.61L163.75 454.41L163.25 455.11L158.45 456.81L157.25 455.91L153.25 458.11L152.35 460.81L152.95 464.01L152.15 469.11L148.25 472.91V474.61L143.85 475.91L141.65 476.01L139.15 475.21L133.95 478.01L132.65 480.41L133.55 482.11L135.95 482.91L132.75 485.11L128.75 485.91L123.35 485.21L120.95 483.91L118.95 485.11L118.15 483.21L116.35 481.91L117.15 479.71L114.95 478.61L112.75 479.41L109.55 479.31L108.15 478.71L109.05 481.81L108.55 483.11L113.15 487.31L112.35 488.61L112.95 490.71L112.45 492.81L113.85 494.71L114.25 497.11L109.55 496.51L107.45 497.21L105.45 496.71L103.05 497.31L102.15 496.41L99.05 498.91L95.15 493.81L92.95 493.11L89.75 493.81L87.15 496.21L85.85 495.51L84.35 496.91L83.05 496.01L80.25 496.41L78.45 498.21L74.35 498.61L72.45 500.81L73.55 502.61L75.95 501.81L78.35 502.51L78.95 503.41L76.35 502.81L74.85 503.01L75.75 505.61L76.55 503.61L78.25 504.21L78.75 506.01L77.25 506.61L74.75 507.51L74.85 508.21H77.25L78.35 511.11L77.95 512.81L80.75 510.91L82.75 511.41L84.45 511.01L88.85 512.81L89.75 514.31H91.55L94.65 516.31L96.85 514.31L98.15 514.71L97.65 516.21L98.35 517.11L100.55 515.81L101.85 517.11L100.75 519.81L102.05 521.81L103.75 521.91L106.35 520.21L109.15 520.61L110.95 523.01L108.75 521.71L106.25 521.81L104.75 524.01L106.15 524.61L106.65 527.31L105.35 529.51L105.85 531.31L108.05 531.71L111.45 535.91L114.75 536.41L117.95 538.31L117.85 540.71L119.15 542.71L118.05 545.41L117.45 545.81L116.85 548.21L119.05 548.81L123.15 552.01L126.35 559.81L122.85 556.41L121.95 553.11L119.15 551.71L117.85 552.61L116.55 559.41L116.65 564.41L118.85 565.81L117.05 567.11L116.35 576.51L113.85 584.61L110.65 586.51L113.05 587.81L113.25 588.51L114.95 588.71L115.45 591.51L115.05 593.61L119.05 593.11L124.45 595.21L127.05 598.01L129.85 596.71L132.95 599.91L136.75 599.81L138.65 600.71L141.05 598.21L147.35 598.01L149.75 599.31L153.55 598.91L157.55 601.01L164.05 600.41L168.65 603.21L170.45 603.81L170.35 602.51L169.25 598.61L170.35 593.91L170.75 591.51L173.85 588.71L178.65 583.61L180.15 583.51L181.65 584.71L184.75 585.21L188.05 587.21H190.25L192.35 585.51L194.35 585.31L202.75 590.51L204.95 592.51L211.35 593.01L213.95 590.81L213.35 589.41L215.75 586.31L224.35 579.81L224.85 579.71L223.95 576.81L225.75 572.71H221.65L217.25 569.81L216.55 564.01L213.15 560.51L215.15 558.31L218.35 557.91L219.15 553.31L216.55 550.91L216.15 547.51L216.85 546.01ZM245.65 621.61L241.55 619.81L240.85 618.51L241.75 617.11L242.85 617.31L242.15 616.01H241.25L241.35 614.11L239.45 613.01L238.65 611.61L239.75 611.01V609.91L237.75 608.81L237.25 606.81H238.75L239.25 605.51L237.75 604.11L239.65 600.81L243.75 599.41L245.45 597.71L247.15 599.51H248.25L248.75 597.01L247.95 595.21L248.45 592.81H249.75L250.45 596.81L250.25 600.31L251.65 605.81L249.95 612.21L250.05 615.71L248.65 620.11L245.65 621.61Z" fill="#D3E8EF" stroke="#74A2C1"/>
<path  id="ALBA" fill-rule="evenodd" clip-rule="evenodd" d="M397.05 614.01L396.45 618.71L397.55 623.91L399.65 627.71L401.05 631.01L403.95 633.11L403.35 636.61L401.25 640.61L395.85 642.41L395.65 645.61L393.75 649.61L391.95 650.51L389.45 648.81L386.95 642.31L381.95 642.11L380.45 640.41L381.55 637.31L380.15 634.71V631.41L381.35 628.51L379.65 624.11L380.95 618.11L382.15 617.51L382.65 615.41L378.65 613.41L378.85 608.31L380.75 604.31L383.55 600.91L384.45 601.11L386.25 603.61L388.65 600.71V600.51L389.75 601.21L391.65 604.41L392.85 604.61L395.65 606.51L396.45 608.51V612.71L397.05 614.01Z" fill="#D3E8EF" stroke="#74A2C1"/>
<path  id="DEU" fill-rule="evenodd" clip-rule="evenodd" d="M230.65 381.61L234.15 381.51L239.25 382.91L240.75 383.51L243.15 383.11L245.85 385.91L248.55 386.31L247.15 389.41L245.75 390.81L246.45 392.31L248.65 392.91L249.45 395.31L251.55 393.81L252.25 392.31L253.55 391.61L254.65 393.01L258.05 395.51L258.85 394.61L260.95 392.81L262.05 393.51L262.15 395.71L260.25 397.91L258.55 397.71L256.15 399.41L259.55 400.51L260.85 399.91L263.35 400.11L264.15 401.61L266.95 401.21L267.45 399.31L269.45 396.61L274.55 395.91L274.65 394.61L277.35 393.21L277.75 391.81L278.95 391.21L282.45 391.61L279.65 392.81L278.55 393.91L278.05 393.51L276.65 394.91L277.75 396.01L280.55 394.01L283.45 393.81L284.75 393.11L285.65 394.61L288.05 395.01L291.45 398.41L294.25 397.91L295.75 400.31L295.25 402.91L297.75 404.91L300.15 404.51L301.85 406.01L304.35 405.91L305.75 412.01L305.35 416.61L301.45 418.61V420.51L305.65 425.01L305.15 427.81L307.15 430.41V432.41L308.35 435.31L307.25 437.71L309.75 443.41L311.55 444.31L313.25 446.51L313.45 453.81L312.15 455.81L310.15 454.71L308.35 456.01L304.15 454.91V457.41L301.95 458.81L299.95 458.31L295.35 458.41L293.85 460.61L290.95 460.71L288.25 463.81L285.85 463.91L281.05 468.41L278.85 467.31L277.55 466.21L276.35 467.01L276.45 469.11L279.95 471.21L282.85 475.71L282.65 479.11L283.45 481.11L286.05 482.51L290.75 485.81L293.45 487.61L298.95 494.01L298.45 496.61L298.55 499.31H296.35L294.85 502.01L291.65 503.71L287.95 508.31V510.11L291.25 511.91L291.75 514.51L290.35 515.41L287.25 513.61L284.15 514.41L280.95 513.61L278.75 513.81L274.35 516.71L271.95 517.21L269.85 516.51L267.35 517.11L265.45 515.81L261.65 515.21L257.95 515.71L258.15 517.61L257.35 518.81L253.85 517.91L251.95 515.81L249.45 516.71L247.95 517.51H247.25L245.85 516.61L242.05 513.91L240.15 513.81L238.75 515.11L237.05 514.51L236.15 511.91L233.35 512.81L233.75 514.51L232.65 516.31L229.35 515.11L226.75 516.41L224.55 515.81H224.65L223.35 513.11L220.95 511.61L220.75 507.71L222.15 502.91L224.05 501.11V499.11L225.55 495.01L228.65 491.81L225.95 490.01H223.35L220.05 488.51L217.55 489.31L215.75 488.61H213.35L211.15 489.41L208.75 487.41V485.71L206.15 483.71H206.05L206.25 479.31L204.85 478.01L204.25 475.11L200.95 471.01H200.05L201.75 467.21L199.95 464.71L200.05 462.91L198.05 458.71L198.85 456.71L198.45 456.61L199.65 453.71L200.55 449.11L199.75 445.11L201.55 442.91L203.25 440.21L206.95 439.31L210.45 440.11L212.45 439.01L210.95 436.41L212.75 435.11L213.15 432.21L213.95 430.51L212.55 429.21H209.25L208.85 427.41L210.05 424.81L212.85 426.01L214.65 424.61L214.75 421.91L215.85 419.51L215.95 418.01L216.75 416.91L216.85 416.31L217.05 416.41L216.45 413.81L213.35 413.31L212.05 410.81L212.65 408.11L218.75 406.41L220.55 405.61L223.65 407.81V410.91L225.85 413.61L227.15 412.21L225.95 409.71V407.81L227.15 407.21L229.15 409.01L228.95 412.21L232.05 415.61L230.75 413.01V409.01L230.15 406.81L231.85 404.11L234.05 403.61L236.15 404.81L239.05 403.61L243.45 408.41L249.45 409.61L243.65 407.21L239.45 402.61L236.05 402.51L234.25 401.31V399.31L236.35 397.61L233.85 396.11V392.81L231.45 393.91L231.35 391.51H233.55L236.05 390.61L233.15 387.81L233.25 385.81L231.85 385.71L229.95 384.51L230.15 382.11L230.65 381.61Z" fill="#D3E8EF" stroke="#74A2C1"/>
<path  id="ANDORA" fill-rule="evenodd" clip-rule="evenodd" d="M146.25 596.11L146.95 598.91L149.15 600.21L152.65 599.81L152.55 597.31L146.25 596.11Z" fill="#D3E8EF" stroke="#74A2C1"/>
<path  id="BOSNIA" fill-rule="evenodd" clip-rule="evenodd" d="M355.05 596.61L355.15 594.71L345.85 583.81L334.75 574.11L334.35 572.61L335.25 571.71L333.85 568.91L332.45 566.71L330.25 564.11L328.45 564.21L328.35 562.21L329.45 561.11V557.61L330.55 556.31L334.35 558.11L335.45 560.01L337.35 559.61V557.71L339.85 557.21L341.65 557.31L342.95 555.91L345.15 557.11L346.35 556.01L348.55 556.51L349.75 558.91L351.55 557.61L354.65 558.71L356.75 557.91L357.45 558.71L360.85 558.31L363.65 559.41L365.45 559.01L368.25 561.41L372.15 561.51L373.25 562.81L374.45 562.01L376.15 562.11L375.75 565.61L372.95 569.71L373.05 571.61L377.05 574.81L379.05 574.91L380.75 576.61L379.85 578.31L377.45 577.01L376.05 577.81V580.91L379.15 584.41L377.95 585.61L375.85 584.91L373.05 582.91L371.25 584.11L371.35 586.21L373.85 587.91L374.75 589.81L372.65 591.01L370.65 591.11L369.55 593.91L369.45 597.61L367.95 600.51L366.65 601.21L363.75 597.31L362.25 598.01L357.15 597.21L355.05 596.61Z" fill="#D3E8EF" stroke="#74A2C1"/>
<path  id="MOLDAVIA" fill-rule="evenodd" clip-rule="evenodd" d="M463.95 504.21L463.45 500.91L463.95 499.21L463.35 495.51L465.55 496.41L466.15 495.51L468.85 497.01L469.65 495.71H472.55L473.75 494.51L475.65 497.71H479.35L483.55 501.61L488.05 502.11L488.75 500.61H490.05L494.25 504.81L497.65 506.61L498.55 511.41L498.15 514.71L501.25 516.41L501.75 517.81L505.15 520.91L509.15 523.31L509.65 525.81L509.05 528.21L510.75 530.61L510.25 532.11H506.15L504.05 530.31L500.55 531.51L497.85 531.61L497.45 536.61V540.01L496.15 539.81L493.55 544.61L493.45 547.11L491.25 546.41L489.25 547.81L489.05 547.41L487.25 543.61L487.85 530.71L485.45 526.71L484.55 522.91L477.15 517.11L476.55 514.41L471.05 509.41L469.55 503.11L463.95 504.21Z" fill="#D3E8EF" stroke="#74A2C1"/>
<path  id="MONACO" fill-rule="evenodd" clip-rule="evenodd" d="M220.85 580.01L222.05 582.11L218.85 584.51L216.85 582.61L220.85 580.01Z" fill="#D3E8EF" stroke="#74A2C1"/>
<path  id="MONTNG" fill-rule="evenodd" clip-rule="evenodd" d="M378.65 613.61L378.85 608.51L380.75 604.51L383.55 601.11L384.45 601.31L386.25 603.81L388.65 600.91L389.05 599.41L391.15 597.61L390.95 594.51L387.55 593.91L385.35 591.81H382.25L380.95 590.31V588.11L378.15 585.31L377.75 585.51L375.65 584.81L372.85 582.81L371.05 584.01L371.15 586.11L373.65 587.81L374.55 589.71L372.45 590.91L370.45 591.01L369.35 593.81L369.25 597.51L367.75 600.41L366.45 601.11L367.35 602.41L369.95 603.51L375.15 610.01L375.65 612.11L378.65 613.61Z" fill="#D3E8EF" stroke="#74A2C1"/>
<path  id="MECEDONIA" fill-rule="evenodd" clip-rule="evenodd" d="M420.45 605.21L425.95 609.61L429.65 616.01L430.15 619.31L430.75 622.01L428.95 623.51L426.45 623.61L423.35 625.61L416.55 625.21L413.65 626.91L413.45 628.11L409.65 629.51L404.15 632.81V633.21L401.25 631.11L399.85 627.81L397.75 624.01L396.65 618.81L397.25 614.11L397.45 614.61L398.65 613.51L398.45 611.31L401.75 609.51L404.55 608.71L406.75 607.01L412.15 605.71L414.75 606.11L418.55 605.31H420.45V605.21Z" fill="#D3E8EF" stroke="#74A2C1"/>
<path  id="KALINGRAD" d="M376.65 397.71C372.25 397.71 364.85 394.41 361.65 392.71L365.15 391.21L367.65 389.21L371.15 388.21L375.15 386.71L373.65 385.71L371.15 384.21L370.15 382.21L371.15 381.21H376.65L379.15 379.71L380.15 377.71V374.71L381.15 370.21L382.65 368.21H388.15L391.65 373.71L395.15 374.71H397.15L400.65 373.71L403.15 374.71V377.71H405.15C405.45 378.21 406.25 379.31 406.65 379.71C407.05 380.11 409.15 380.91 410.15 381.21C410.95 381.61 411.85 383.41 412.15 384.21C412.85 384.71 414.15 385.91 414.15 386.71C414.15 387.71 413.15 389.21 414.15 391.21C414.95 392.81 414.45 395.51 414.15 396.71C407.45 397.01 393.65 397.71 391.65 397.71H376.65Z" fill="#D3E8EF" stroke="#74A2C1"/>
<path  id="GEORGIA" fill-rule="evenodd" clip-rule="evenodd" d="M648.85 586.41V582.11L653.05 580.01L658.35 580.61L662.45 582.61L669.95 582.71L674.15 585.51L679.25 588.01L684.05 588.91L685.55 591.71H690.65L693.05 588.31L698.85 588.11L703.55 585.91L715.85 588.81V591.21L716.55 594.71L719.75 595.51L721.55 596.81L723.45 598.21L724.05 601.11L726.25 602.81H728.75L732.85 606.51L731.45 611.51L734.95 613.71L736.95 616.51L736.25 621.51L731.15 618.91L726.05 618.71L718.25 614.31L713.05 616.31L712.85 618.71L712.05 618.01L704.25 618.11L702.45 617.71L691.95 620.41L689.45 619.81L683.65 615.01L681.45 614.41L679.45 616.11L677.65 616.31L674.15 614.91L672.85 616.61L671.35 616.11L670.75 613.61L668.95 613.41L668.75 610.51L669.65 609.01L667.25 604.61L666.55 598.81L661.95 592.21L658.65 591.71L658.45 590.01L654.95 586.91L653.45 588.01L652.15 587.41L649.45 587.21L648.85 586.41Z" fill="#D3E8EF" stroke="#74A2C1"/>
<path  id="KOSOVO" d="M391.15 596.11L394.95 594.31L397.15 591.51L398.25 588.91V585.71L398.85 584.61H400.65L402.05 586.51L404.05 586.91L406.65 587.51L408.55 589.41V594.01L410.95 596.51L411.55 598.31L411.05 600.71L410.15 602.41L410.55 606.21L406.75 607.11L404.55 608.81L401.75 609.61L398.45 611.41L398.65 613.61L397.45 614.71L396.65 613.01V608.81L395.85 606.81L393.05 604.91L391.85 604.71L389.95 601.51L388.85 601.01L389.25 599.51L391.35 597.71V596.11H391.15Z" fill="#D3E8EF" stroke="#74A2C1"/>
</g>
<defs>
<clipPath id="clip0_34_48">
<rect width="737.47" height="732.61" fill="white"/>
</clipPath>
</defs>
    <circle class="hidden" id="line-inner-dot" cx="0" cy="0" r="5" fill="#005FAA"></circle>
    <circle class="hidden" id="line-outer-circle" cx="0" cy="0" r="8" fill="none" stroke="#005FAA" stroke-width="2"></circle>
</svg>
